<svg width="19" height="20" viewBox="0 0 19 20" fill="none" xmlns="http://www.w3.org/2000/svg">
<path d="M9.50016 2.08203C5.13808 2.08203 1.5835 5.63661 1.5835 9.9987C1.5835 14.3608 5.13808 17.9154 9.50016 17.9154C13.8622 17.9154 17.4168 14.3608 17.4168 9.9987C17.4168 5.63661 13.8622 2.08203 9.50016 2.08203ZM12.6668 10.5924H10.0939V13.1654C10.0939 13.4899 9.82475 13.7591 9.50016 13.7591C9.17558 13.7591 8.90641 13.4899 8.90641 13.1654V10.5924H6.3335C6.00891 10.5924 5.73975 10.3233 5.73975 9.9987C5.73975 9.67411 6.00891 9.40495 6.3335 9.40495H8.90641V6.83203C8.90641 6.50745 9.17558 6.23828 9.50016 6.23828C9.82475 6.23828 10.0939 6.50745 10.0939 6.83203V9.40495H12.6668C12.9914 9.40495 13.2606 9.67411 13.2606 9.9987C13.2606 10.3233 12.9914 10.5924 12.6668 10.5924Z" fill="#7E81E8"/>
</svg>
