<svg width="19" height="20" viewBox="0 0 19 20" fill="none" xmlns="http://www.w3.org/2000/svg">
<path d="M6.18275 17.918H12.8169C15.6986 17.918 17.4165 16.2001 17.4165 13.3184V6.69214C17.4165 3.80255 15.6986 2.08464 12.8169 2.08464L6.19067 2.08464C3.309 2.08464 1.59109 3.80255 1.59109 6.68422L1.59109 13.3184C1.58317 16.2001 3.30109 17.918 6.18275 17.918ZM6.28567 10.6584L9.08025 7.8638C9.199 7.74505 9.34942 7.68964 9.49984 7.68964C9.65025 7.68964 9.80067 7.74505 9.91942 7.8638L12.714 10.6584C12.9436 10.888 12.9436 11.268 12.714 11.4976C12.4844 11.7271 12.1044 11.7271 11.8748 11.4976L9.49984 9.12255L7.12484 11.4976C6.89525 11.7271 6.51525 11.7271 6.28567 11.4976C6.05609 11.268 6.05609 10.8959 6.28567 10.6584Z" fill="#7E81E8"/>
</svg>
