<svg width="16" height="17" viewBox="0 0 16 17" fill="none" xmlns="http://www.w3.org/2000/svg">
<path d="M9.15327 2.67375L10.3266 5.02042C10.4866 5.34708 10.9133 5.66042 11.2733 5.72042L13.3999 6.07375C14.7599 6.30042 15.0799 7.28708 14.0999 8.26042L12.4466 9.91375C12.1666 10.1938 12.0133 10.7338 12.0999 11.1204L12.5733 13.1671C12.9466 14.7871 12.0866 15.4138 10.6533 14.5671L8.65994 13.3871C8.29994 13.1738 7.70661 13.1738 7.33994 13.3871L5.34661 14.5671C3.91994 15.4138 3.05327 14.7804 3.42661 13.1671L3.89994 11.1204C3.98661 10.7338 3.83327 10.1938 3.55327 9.91375L1.89994 8.26042C0.926606 7.28708 1.23994 6.30042 2.59994 6.07375L4.72661 5.72042C5.07994 5.66042 5.50661 5.34708 5.66661 5.02042L6.83994 2.67375C7.47994 1.40042 8.51994 1.40042 9.15327 2.67375Z" fill="#292D32"/>
</svg>
