<svg width="16" height="16" viewBox="0 0 16 16" fill="none" xmlns="http://www.w3.org/2000/svg">
<path d="M5.33301 1.33203V3.33203" stroke="#54577A" stroke-width="1.5" stroke-miterlimit="10" stroke-linecap="round" stroke-linejoin="round"/>
<path d="M10.667 1.33203V3.33203" stroke="#54577A" stroke-width="1.5" stroke-miterlimit="10" stroke-linecap="round" stroke-linejoin="round"/>
<path d="M12.1333 14.2667C13.3115 14.2667 14.2667 13.3115 14.2667 12.1333C14.2667 10.9551 13.3115 10 12.1333 10C10.9551 10 10 10.9551 10 12.1333C10 13.3115 10.9551 14.2667 12.1333 14.2667Z" stroke="#54577A" stroke-width="1.5" stroke-linecap="round" stroke-linejoin="round"/>
<path d="M14.6667 14.6667L14 14" stroke="#54577A" stroke-width="1.5" stroke-linecap="round" stroke-linejoin="round"/>
<path d="M2.33301 6.05859H13.6663" stroke="#54577A" stroke-width="1.5" stroke-miterlimit="10" stroke-linecap="round" stroke-linejoin="round"/>
<path d="M8.91333 14.6654H5.33333C3 14.6654 2 13.332 2 11.332V5.66536C2 3.66536 3 2.33203 5.33333 2.33203H10.6667C13 2.33203 14 3.66536 14 5.66536V8.66536" stroke="#54577A" stroke-width="1.5" stroke-miterlimit="10" stroke-linecap="round" stroke-linejoin="round"/>
<path d="M7.99666 9.13411H8.00265" stroke="#54577A" stroke-width="2" stroke-linecap="round" stroke-linejoin="round"/>
<path d="M5.52987 9.13411H5.53585" stroke="#54577A" stroke-width="2" stroke-linecap="round" stroke-linejoin="round"/>
<path d="M5.52987 11.1341H5.53585" stroke="#54577A" stroke-width="2" stroke-linecap="round" stroke-linejoin="round"/>
</svg>
