<svg width="37" height="36" viewBox="0 0 37 36" fill="none" xmlns="http://www.w3.org/2000/svg">
<path d="M29.25 20.0391H3.75C3.135 20.0391 2.625 19.5291 2.625 18.9141C2.625 18.2991 3.135 17.7891 3.75 17.7891H29.25C29.865 17.7891 30.375 18.2991 30.375 18.9141C30.375 19.5291 29.865 20.0391 29.25 20.0391Z" fill="#7E81E8"/>
<path d="M23.58 32.6242H9.42004C4.27504 32.6242 2.625 30.9892 2.625 25.9042V15.4192C2.625 11.3842 3.54003 8.99922 8.19003 8.72922C8.58003 8.71422 8.98504 8.69922 9.42004 8.69922H23.58C28.725 8.69922 30.375 10.3342 30.375 15.4192V26.1442C30.315 31.0492 28.665 32.6242 23.58 32.6242ZM9.42004 10.9492C9.01504 10.9492 8.64004 10.9642 8.29504 10.9792C5.61004 11.1442 4.875 11.7142 4.875 15.4192V25.9042C4.875 29.7442 5.50504 30.3742 9.42004 30.3742H23.58C27.45 30.3742 28.08 29.7742 28.125 26.1292V15.4192C28.125 11.5792 27.495 10.9492 23.58 10.9492H9.42004Z" fill="#7E81E8"/>
<path d="M29.25 27.27C28.965 27.27 28.68 27.165 28.485 26.97C28.26 26.76 28.125 26.46 28.125 26.145V15.42C28.125 11.58 27.495 10.95 23.58 10.95H9.42004C9.01504 10.95 8.64004 10.965 8.29504 10.98C7.99504 10.995 7.69497 10.875 7.46997 10.665C7.24497 10.455 7.125 10.155 7.125 9.84C7.185 4.95 8.83504 3.375 13.92 3.375H28.08C33.225 3.375 34.875 5.01 34.875 10.095V20.58C34.875 24.615 33.96 27 29.31 27.27C29.295 27.27 29.265 27.27 29.25 27.27ZM9.42004 8.7H23.58C28.725 8.7 30.375 10.335 30.375 15.42V24.9C32.115 24.585 32.625 23.685 32.625 20.58V10.095C32.625 6.255 31.995 5.625 28.08 5.625H13.92C10.5 5.625 9.61504 6.09 9.42004 8.7Z" fill="#7E81E8"/>
<path d="M11.1894 27.8398H8.60937C7.99437 27.8398 7.48438 27.3298 7.48438 26.7148C7.48438 26.0998 7.99437 25.5898 8.60937 25.5898H11.1894C11.8044 25.5898 12.3144 26.0998 12.3144 26.7148C12.3144 27.3298 11.8194 27.8398 11.1894 27.8398Z" fill="#7E81E8"/>
<path d="M19.5741 27.8398H14.4141C13.7991 27.8398 13.2891 27.3298 13.2891 26.7148C13.2891 26.0998 13.7991 25.5898 14.4141 25.5898H19.5741C20.1891 25.5898 20.6991 26.0998 20.6991 26.7148C20.6991 27.3298 20.2041 27.8398 19.5741 27.8398Z" fill="#7E81E8"/>
</svg>
