<?xml version="1.0" encoding="UTF-8"?>
<!-- Generator: visioncortex VTracer 0.6.2 -->
<svg version="1.1" xmlns="http://www.w3.org/2000/svg" width="1280" height="1280">
<path d="M0 0 C1.3122908 -0.00422974 1.3122908 -0.00422974 2.65109253 -0.00854492 C3.60807037 -0.00652069 4.56504822 -0.00449646 5.55102539 -0.00241089 C6.56101593 -0.00416321 7.57100647 -0.00591553 8.61160278 -0.00772095 C11.9573131 -0.01212992 15.30297076 -0.0092048 18.64868164 -0.00582886 C20.96891286 -0.00650217 23.28914402 -0.00747243 25.609375 -0.00872803 C30.4750231 -0.01020371 35.34065286 -0.00805459 40.20629883 -0.00338745 C46.45103922 0.00230975 52.69573664 -0.00096995 58.94047546 -0.00695992 C63.73246587 -0.01056901 68.52444605 -0.00942533 73.31643677 -0.00683212 C75.61939499 -0.00616382 77.92235413 -0.00698791 80.22531128 -0.00931168 C83.44067861 -0.01184388 86.6559758 -0.0079895 89.87133789 -0.00241089 C91.30680466 -0.00544724 91.30680466 -0.00544724 92.77127075 -0.00854492 C93.64613129 -0.0057251 94.52099182 -0.00290527 95.42236328 0 C96.18263321 0.00037703 96.94290314 0.00075405 97.72621155 0.0011425 C99.71118164 0.12698364 99.71118164 0.12698364 102.71118164 1.12698364 C104.93816137 1.28626431 107.1681601 1.40409242 109.39868164 1.50198364 C124.77253337 2.32686931 140.08748877 4.43425614 155.17993164 7.44338989 C158.57855904 8.10131002 161.97276679 8.63348877 165.39868164 9.12698364 C170.86936198 9.93845662 176.19519696 11.11242331 181.57055664 12.40432739 C184.5664578 13.09368276 187.55773452 13.66405634 190.58618164 14.18948364 C194.72858689 14.91276075 198.67100158 15.95165853 202.71118164 17.12698364 C206.03535513 17.84280861 209.37012586 18.4950737 212.71118164 19.12698364 C212.71118164 19.78698364 212.71118164 20.44698364 212.71118164 21.12698364 C213.70118164 20.79698364 214.69118164 20.46698364 215.71118164 20.12698364 C217.39799796 20.74088341 219.06314923 21.41549829 220.71118164 22.12698364 C222.55781745 22.61477423 224.41283266 23.0715832 226.27368164 23.50198364 C232.55459308 25.03391326 238.60171491 27.02568603 244.71118164 29.12698364 C247.1690361 29.9409311 249.62739284 30.75336303 252.08618164 31.56448364 C263.10206427 35.23691104 273.96734117 39.13646164 284.67553711 43.62844849 C293.52202838 47.38012827 293.52202838 47.38012827 302.71118164 50.12698364 C302.71118164 50.78698364 302.71118164 51.44698364 302.71118164 52.12698364 C303.51555664 52.31260864 303.51555664 52.31260864 304.33618164 52.50198364 C311.57821028 54.40778065 317.89259487 57.58688848 324.51196289 60.99026489 C328.65642416 63.11918269 332.85737355 65.10947749 337.08618164 67.06448364 C338.04077271 67.50582642 338.04077271 67.50582642 339.01464844 67.95608521 C339.60286377 68.22775513 340.1910791 68.49942505 340.79711914 68.77932739 C343.67867745 70.11195154 346.06029743 71.3597275 348.71118164 73.12698364 C349.37118164 73.45698364 350.03118164 73.78698364 350.71118164 74.12698364 C350.71118164 74.78698364 350.71118164 75.44698364 350.71118164 76.12698364 C351.4343457 76.23139771 352.15750977 76.33581177 352.90258789 76.44338989 C355.98134131 77.19273878 357.99574014 78.35033976 360.64868164 80.06448364 C364.27988633 82.3353415 367.60400832 83.86323801 371.71118164 85.12698364 C372.04118164 85.78698364 372.37118164 86.44698364 372.71118164 87.12698364 C374.40922275 88.13944427 376.14533751 89.08863569 377.89868164 90.00198364 C381.09021996 91.69283749 384.19389771 93.3604733 387.14868164 95.43948364 C389.53790545 97.21555161 389.53790545 97.21555161 391.96118164 97.68948364 C393.71118164 98.12698364 393.71118164 98.12698364 395.71118164 101.12698364 C396.70118164 101.45698364 397.69118164 101.78698364 398.71118164 102.12698364 C398.71118164 102.78698364 398.71118164 103.44698364 398.71118164 104.12698364 C399.27321289 104.40284302 399.83524414 104.67870239 400.41430664 104.96292114 C402.79736959 106.17066393 405.12908244 107.44875174 407.46118164 108.75198364 C408.26040039 109.19799927 409.05961914 109.64401489 409.88305664 110.10354614 C410.48633789 110.44128052 411.08961914 110.77901489 411.71118164 111.12698364 C411.71118164 111.78698364 411.71118164 112.44698364 411.71118164 113.12698364 C412.28868164 113.23010864 412.86618164 113.33323364 413.46118164 113.43948364 C416.06500515 114.23509638 417.65747562 115.35654742 419.71118164 117.12698364 C420.04118164 117.78698364 420.37118164 118.44698364 420.71118164 119.12698364 C421.70118164 119.43635864 422.69118164 119.74573364 423.71118164 120.06448364 C424.70118164 120.41510864 425.69118164 120.76573364 426.71118164 121.12698364 C427.04118164 122.11698364 427.37118164 123.10698364 427.71118164 124.12698364 C429.40166893 125.43881229 429.40166893 125.43881229 431.46118164 126.56448364 C436.82475976 129.66594198 441.38923616 133.68440753 446.14868164 137.62698364 C448.9942451 139.96726014 451.73154326 142.14001508 454.83618164 144.12698364 C458.5064194 146.68019252 461.39887997 149.76478241 464.46508789 153.00588989 C466.58951889 155.1789289 466.58951889 155.1789289 469.04321289 156.45901489 C472.86494988 158.84829995 475.72795265 162.01288185 478.83618164 165.25198364 C480.06318978 166.53001083 481.29477603 167.80366272 482.53149414 169.07229614 C483.0704834 169.63448853 483.60947266 170.19668091 484.16479492 170.77590942 C485.78339934 172.36552612 485.78339934 172.36552612 488.71118164 173.12698364 C488.71118164 174.11698364 488.71118164 175.10698364 488.71118164 176.12698364 C489.37118164 176.12698364 490.03118164 176.12698364 490.71118164 176.12698364 C491.51555664 177.09635864 492.31993164 178.06573364 493.14868164 179.06448364 C495.41802541 182.32073691 495.41802541 182.32073691 498.71118164 183.12698364 C499.40784349 184.44489278 500.07063317 185.78090791 500.71118164 187.12698364 C502.32954069 189.01844659 502.32954069 189.01844659 504.23071289 190.84182739 C504.92358398 191.52825317 505.61645508 192.21467896 506.33032227 192.92190552 C507.05413086 193.6289563 507.77793945 194.33600708 508.52368164 195.06448364 C509.23588867 195.76766724 509.9480957 196.47085083 510.68188477 197.19534302 C512.6884102 199.17588199 514.69916191 201.15202882 516.71118164 203.12698364 C519.52042665 205.89348772 522.21791718 208.6366513 524.71118164 211.68948364 C526.60491995 213.95608234 528.19653088 215.49627111 530.58618164 217.31448364 C531.28743164 217.91260864 531.98868164 218.51073364 532.71118164 219.12698364 C532.71118164 220.44698364 532.71118164 221.76698364 532.71118164 223.12698364 C533.57356445 223.50403442 533.57356445 223.50403442 534.45336914 223.88870239 C537.00601052 225.28868045 538.77351286 226.88857914 540.83618164 228.93948364 C541.51938477 229.60592896 542.20258789 230.27237427 542.90649414 230.95901489 C544.83722865 233.27840376 545.6407586 235.32707543 546.71118164 238.12698364 C548.1085626 240.12375624 548.1085626 240.12375624 549.71118164 241.87698364 C550.22680664 242.46995239 550.74243164 243.06292114 551.27368164 243.67385864 C552.66857342 245.23957582 552.66857342 245.23957582 554.71118164 246.12698364 C555.12368164 246.82823364 555.53618164 247.52948364 555.96118164 248.25198364 C557.81971987 251.30529644 559.94102917 253.81551445 562.30883789 256.47854614 C564.58365736 259.15256791 565.71118164 260.54509413 565.71118164 264.12698364 C566.37118164 264.45698364 567.03118164 264.78698364 567.71118164 265.12698364 C570.46835866 266.50557215 571.1743991 268.50164679 572.71118164 271.12698364 C573.37118164 271.78698364 574.03118164 272.44698364 574.71118164 273.12698364 C574.89680664 274.08604614 574.89680664 274.08604614 575.08618164 275.06448364 C575.53932858 277.29777235 575.53932858 277.29777235 577.64868164 278.56448364 C580.19566282 280.49401484 580.60559994 282.17876578 581.71118164 285.12698364 C582.69056954 286.14717938 583.69013613 287.14848169 584.71118164 288.12698364 C585.37784831 289.46031698 586.04451497 290.79365031 586.71118164 292.12698364 C587.20618164 292.60135864 587.70118164 293.07573364 588.21118164 293.56448364 C590.10772465 295.54004928 590.70008811 297.59924983 591.71118164 300.12698364 C592.18555664 300.59233521 592.65993164 301.05768677 593.14868164 301.53713989 C594.86329245 303.28175639 595.69154591 304.85102441 596.71118164 307.06448364 C598.50851603 310.80266581 600.62158272 313.81946494 603.27368164 317.00198364 C604.71118164 319.12698364 604.71118164 319.12698364 605.71118164 322.18948364 C606.73851507 325.2072756 607.49804558 326.00237303 609.71118164 328.12698364 C611.86974901 331.88448981 612.71118164 333.72700448 612.71118164 338.12698364 C613.37118164 338.12698364 614.03118164 338.12698364 614.71118164 338.12698364 C614.97930664 338.84885864 615.24743164 339.57073364 615.52368164 340.31448364 C616.63840246 343.1383211 616.63840246 343.1383211 618.21118164 345.62698364 C619.6810703 348.07679807 620.65259505 350.48051717 621.71118164 353.12698364 C622.20618164 353.95198364 622.70118164 354.77698364 623.21118164 355.62698364 C624.6810703 358.07679807 625.65259505 360.48051717 626.71118164 363.12698364 C627.20618164 363.91073364 627.70118164 364.69448364 628.21118164 365.50198364 C629.98681058 368.60933428 630.73011819 371.69326157 631.71118164 375.12698364 C632.6755024 376.81454497 633.67328583 378.4836486 634.71118164 380.12698364 C635.37784831 381.79365031 636.04451497 383.46031698 636.71118164 385.12698364 C637.22680664 385.91073364 637.74243164 386.69448364 638.27368164 387.50198364 C640.01792501 390.6871237 640.23053951 393.55649924 640.71118164 397.12698364 C641.37118164 397.45698364 642.03118164 397.78698364 642.71118164 398.12698364 C642.71118164 399.77698364 642.71118164 401.42698364 642.71118164 403.12698364 C643.37118164 403.12698364 644.03118164 403.12698364 644.71118164 403.12698364 C644.97930664 404.17885864 645.24743164 405.23073364 645.52368164 406.31448364 C646.51346002 410.03634596 646.51346002 410.03634596 648.27368164 412.68948364 C649.94215806 415.51863931 650.22087837 417.90499069 650.71118164 421.12698364 C651.37118164 422.11698364 652.03118164 423.10698364 652.71118164 424.12698364 C653.40492079 426.36267742 654.04447368 428.61545022 654.64868164 430.87698364 C656.19454895 436.5456579 656.19454895 436.5456579 658.33618164 442.00198364 C660.24228948 446.33404692 661.2153576 450.7319014 662.17211914 455.35354614 C663.10249298 459.79188691 664.30719415 463.85788373 665.98461914 468.06838989 C667.0540684 471.09849614 667.66570945 474.19268286 668.28149414 477.34182739 C668.54994858 479.13974976 668.54994858 479.13974976 669.71118164 480.12698364 C669.99407345 482.38113743 670.15889354 484.6353902 670.33227539 486.90042114 C670.60318989 489.40618442 670.60318989 489.40618442 672.71118164 492.12698364 C673.09008789 494.13479614 673.09008789 494.13479614 673.27368164 496.25198364 C673.27805063 499.9016233 673.27805063 499.9016233 674.71118164 501.12698364 C674.99597286 503.90256787 675.15961183 506.67826209 675.33227539 509.46292114 C675.54702758 512.3487645 675.54702758 512.3487645 677.71118164 515.12698364 C678.09008789 517.57229614 678.09008789 517.57229614 678.27368164 520.25198364 C678.25603043 523.49619339 678.25603043 523.49619339 679.71118164 526.12698364 C679.99873884 529.35857883 680.16003167 532.59046086 680.33227539 535.83010864 C680.55138677 539.05151393 680.55138677 539.05151393 681.71118164 541.56448364 C683.03667388 544.96105752 683.13150123 548.27739182 683.27368164 551.87698364 C683.08085925 556.36441203 683.08085925 556.36441203 684.71118164 560.12698364 C684.83202451 561.59374674 684.89074236 563.06574176 684.92211914 564.53713989 C684.95047852 565.44528442 684.97883789 566.35342896 685.00805664 567.28909302 C685.05939866 569.19516567 685.10387722 571.10143788 685.14086914 573.00784302 C685.17180664 573.92501099 685.20274414 574.84217896 685.23461914 575.78713989 C685.25443848 576.61866577 685.27425781 577.45019165 685.29467773 578.30691528 C685.61942093 581.3239175 685.61942093 581.3239175 687.21295166 584.66920471 C689.07510685 589.56005519 689.13388142 594.08532933 689.09936523 599.27151489 C689.10462219 600.25469696 689.10987915 601.23787903 689.11529541 602.25085449 C689.1284316 605.48056215 689.11977978 608.70977151 689.10961914 611.93948364 C689.1116417 614.19575087 689.11455466 616.45201747 689.11831665 618.70828247 C689.12273137 623.42896775 689.11633625 628.14948232 689.10229492 632.87014771 C689.08520375 638.90923146 689.09504947 644.94791516 689.11301231 650.98698425 C689.12387306 655.64365634 689.12039326 660.3002342 689.11262894 664.95690918 C689.11063328 667.18316699 689.11306384 669.40943346 689.1200676 671.63568115 C689.12771967 674.75150082 689.1160249 677.86668018 689.09936523 680.98245239 C689.10543793 681.89489716 689.11151062 682.80734192 689.11776733 683.74743652 C689.0602697 689.57694351 687.92612172 693.74393463 685.71118164 699.12698364 C685.44498205 701.85938373 685.50882058 704.51281791 685.64868164 707.25198364 C685.87674405 712.34699481 685.39254736 716.28591931 683.71118164 721.12698364 C683.35583995 724.94286882 683.20916061 728.73965575 683.05493164 732.56838989 C682.73225067 735.90887127 681.99592752 738.07758681 680.71118164 741.12698364 C680.29855652 743.88328806 680.29855652 743.88328806 680.14868164 746.68948364 C679.92533537 749.97586448 679.53094285 752.94400457 678.71118164 756.12698364 C678.46069175 758.3853687 678.27235931 760.64341433 678.09008789 762.90823364 C677.71118164 765.12698364 677.71118164 765.12698364 676.70336914 767.12307739 C675.56080404 769.43069903 675.41292746 771.12820451 675.27368164 773.68948364 C674.1259912 787.71217408 674.1259912 787.71217408 670.71118164 791.12698364 C670.50418601 792.62195207 670.34438905 794.12364284 670.21118164 795.62698364 C669.82229275 800.01587253 669.82229275 800.01587253 668.71118164 801.12698364 C668.38701697 802.47374051 668.10201365 803.83000942 667.83618164 805.18948364 C667.17827416 808.29736003 666.38660651 811.1765485 665.21118164 814.12698364 C663.86456173 817.54378043 663.05556948 820.89702696 662.30883789 824.48635864 C658.96986025 839.23896573 658.96986025 839.23896573 655.71118164 844.12698364 C655.20444426 846.03142524 654.75177262 847.95059721 654.33618164 849.87698364 C653.46525388 853.55079566 652.62524404 856.71379259 650.64868164 859.93948364 C648.58650342 863.33209942 647.67062566 866.28920757 646.71118164 870.12698364 C646.34093827 871.44083337 645.9660569 872.75338638 645.58618164 874.06448364 C645.29743164 875.07510864 645.00868164 876.08573364 644.71118164 877.12698364 C644.05118164 877.12698364 643.39118164 877.12698364 642.71118164 877.12698364 C642.71118164 878.77698364 642.71118164 880.42698364 642.71118164 882.12698364 C642.05118164 882.12698364 641.39118164 882.12698364 640.71118164 882.12698364 C640.38118164 884.43698364 640.05118164 886.74698364 639.71118164 889.12698364 C639.05118164 889.12698364 638.39118164 889.12698364 637.71118164 889.12698364 C637.75243164 889.91073364 637.79368164 890.69448364 637.83618164 891.50198364 C637.71118164 894.12698364 637.71118164 894.12698364 635.71118164 896.12698364 C634.65738747 898.78437764 633.66777663 901.43538794 632.71118164 904.12698364 C632.15147071 905.62802659 631.5891034 907.12808255 631.02368164 908.62698364 C630.37399414 910.35948364 630.37399414 910.35948364 629.71118164 912.12698364 C629.05118164 912.12698364 628.39118164 912.12698364 627.71118164 912.12698364 C627.52555664 913.20979614 627.52555664 913.20979614 627.33618164 914.31448364 C626.72068854 917.08420259 625.8267379 919.52401904 624.71118164 922.12698364 C624.05118164 922.12698364 623.39118164 922.12698364 622.71118164 922.12698364 C622.52555664 923.20979614 622.52555664 923.20979614 622.33618164 924.31448364 C621.72068854 927.08420259 620.8267379 929.52401904 619.71118164 932.12698364 C619.05118164 932.12698364 618.39118164 932.12698364 617.71118164 932.12698364 C617.52555664 933.20979614 617.52555664 933.20979614 617.33618164 934.31448364 C616.72068854 937.08420259 615.8267379 939.52401904 614.71118164 942.12698364 C614.05118164 942.12698364 613.39118164 942.12698364 612.71118164 942.12698364 C612.60805664 942.89010864 612.50493164 943.65323364 612.39868164 944.43948364 C611.63668079 947.41821425 610.86031143 948.06381905 608.71118164 950.12698364 C608.03603053 951.79023143 607.37091175 953.45755907 606.71118164 955.12698364 C605.73764379 957.01585872 604.73663647 958.89078312 603.71118164 960.75198364 C602.93774414 962.16350708 602.93774414 962.16350708 602.14868164 963.60354614 C601.07527714 965.48783773 599.91409503 967.32261356 598.71118164 969.12698364 C597.72118164 969.12698364 596.73118164 969.12698364 595.71118164 969.12698364 C596.04118164 970.11698364 596.37118164 971.10698364 596.71118164 972.12698364 C595.17671609 975.80970096 593.56315103 978.39384631 590.71118164 981.12698364 C589.02464738 983.72705729 587.61345093 986.33094339 586.27368164 989.12698364 C584.68880336 992.16994993 582.89711402 994.49100637 580.71118164 997.12698364 C578.42441873 1000.1925203 576.2172331 1003.26889639 574.27368164 1006.56448364 C572.48981671 1009.49002214 570.46756279 1012.15064567 568.39086914 1014.87307739 C565.96832735 1018.12379044 563.69773727 1021.47544153 561.42211914 1024.83010864 C559.68756467 1027.15868862 557.77594161 1029.09239762 555.71118164 1031.12698364 C555.27805664 1031.86948364 554.84493164 1032.61198364 554.39868164 1033.37698364 C552.3744872 1036.67567088 549.91120322 1039.34691802 547.33227539 1042.22073364 C545.60770235 1044.13157543 545.60770235 1044.13157543 544.27368164 1046.62698364 C541.7480241 1050.6680357 538.32643364 1054.03367885 534.71118164 1057.12698364 C534.05118164 1057.12698364 533.39118164 1057.12698364 532.71118164 1057.12698364 C532.66394455 1057.82420029 532.61670746 1058.52141693 532.56803894 1059.23976135 C531.38773143 1063.21686484 528.88913528 1065.49213679 526.00146484 1068.32254028 C525.4062352 1068.92156662 524.81100555 1069.52059296 524.19773865 1070.13777161 C522.22878316 1072.11413192 520.24580051 1074.07572718 518.26196289 1076.03713989 C516.88698127 1077.40973633 515.51273921 1078.78307398 514.13920593 1080.15711975 C511.25763588 1083.03556156 508.36947235 1085.90716104 505.47607422 1088.77371216 C501.77492459 1092.44094635 498.08701238 1096.12114373 494.40354633 1099.80613041 C491.56534259 1102.64378902 488.72194552 1105.47619486 485.876791 1108.30688286 C484.51570177 1109.66162462 483.15580561 1111.01756617 481.79714394 1112.37474251 C479.8923484 1114.27517968 477.98109548 1116.16887487 476.06787109 1118.06082153 C475.51126801 1118.61833099 474.95466492 1119.17584045 474.38119507 1119.75024414 C471.05874867 1123.0190644 467.65678175 1125.60565109 463.71118164 1128.12698364 C462.33869047 1129.4414467 461.00152883 1130.79429574 459.71118164 1132.18948364 C456.57254074 1135.42937102 453.76980502 1137.1408488 449.71118164 1139.12698364 C447.87472256 1140.82539455 446.16395377 1142.61400008 444.43774414 1144.42385864 C442.10230457 1146.72759542 439.47933183 1148.38184548 436.71118164 1150.12698364 C435.88618164 1150.78698364 435.06118164 1151.44698364 434.21118164 1152.12698364 C431.48242469 1154.30998921 428.6179023 1156.18916987 425.71118164 1158.12698364 C423.18535782 1160.09835833 420.71955828 1162.11989571 418.27368164 1164.18948364 C415.71118164 1166.12698364 415.71118164 1166.12698364 412.89868164 1167.50198364 C409.52264758 1169.22309904 406.77905421 1171.27503609 403.78930664 1173.58010864 C401.15039423 1175.54441186 398.39602879 1177.25751728 395.59008789 1178.97073364 C393.87650955 1180.02524339 392.19780768 1181.13589962 390.52368164 1182.25198364 C387.95892671 1183.96182026 385.35682293 1185.54662269 382.71118164 1187.12698364 C381.85137695 1187.65678833 380.99157227 1188.18659302 380.10571289 1188.73245239 C379.25364258 1189.25452271 378.40157227 1189.77659302 377.52368164 1190.31448364 C376.66387695 1190.84428833 375.80407227 1191.37409302 374.91821289 1191.91995239 C372.71118164 1193.12698364 372.71118164 1193.12698364 370.71118164 1193.12698364 C370.05118164 1194.11698364 369.39118164 1195.10698364 368.71118164 1196.12698364 C367.05420785 1196.81738939 365.38560554 1197.48004714 363.71118164 1198.12698364 C362.19524414 1199.14792114 362.19524414 1199.14792114 360.64868164 1200.18948364 C358.05104687 1201.90281721 356.60898236 1202.4275145 353.71118164 1203.12698364 C353.32575195 1203.55495239 352.94032227 1203.98292114 352.54321289 1204.42385864 C349.90625044 1206.87527789 346.79699281 1208.2601075 343.58618164 1209.81448364 C342.88549561 1210.1589856 342.18480957 1210.50348755 341.46289062 1210.85842896 C316.79500655 1222.93105287 316.79500655 1222.93105287 306.02368164 1227.18948364 C303.57118158 1228.13328771 303.57118158 1228.13328771 300.83618164 1229.68948364 C297.41805433 1231.26182221 294.43776835 1231.75432497 290.71118164 1232.12698364 C290.71118164 1232.78698364 290.71118164 1233.44698364 290.71118164 1234.12698364 C278.71118164 1238.12698364 278.71118164 1238.12698364 275.53149414 1239.14260864 C272.52523418 1240.10995796 272.52523418 1240.10995796 269.21118164 1242.00198364 C264.36751312 1244.5124785 259.22496584 1245.76141924 253.98071289 1247.18557739 C251.46903236 1247.90877334 249.20174225 1248.66980764 246.83618164 1249.75198364 C242.50411837 1251.65809148 238.10626388 1252.6311596 233.48461914 1253.58792114 C229.04627837 1254.51829498 224.98028156 1255.72299615 220.76977539 1257.40042114 C217.73966915 1258.46987041 214.64548242 1259.08151145 211.49633789 1259.69729614 C209.69841552 1259.96575058 209.69841552 1259.96575058 208.71118164 1261.12698364 C206.45702786 1261.40987545 204.20277508 1261.57469555 201.93774414 1261.74807739 C199.43198086 1262.01899189 199.43198086 1262.01899189 196.71118164 1264.12698364 C194.38203341 1264.4884032 192.04864687 1264.82397889 189.71118164 1265.12698364 C189.38118164 1265.45698364 189.05118164 1265.78698364 188.71118164 1266.12698364 C185.96824968 1266.41261127 183.22509326 1266.57537637 180.47290039 1266.74807739 C177.7270801 1267.12480238 176.14592006 1267.89029111 173.71118164 1269.12698364 C171.16821289 1269.50588989 171.16821289 1269.50588989 168.52368164 1269.68948364 C165.31114366 1269.67687611 165.31114366 1269.67687611 162.71118164 1271.12698364 C159.47958645 1271.41454084 156.24770442 1271.57583368 153.00805664 1271.74807739 C149.78665135 1271.96718877 149.78665135 1271.96718877 147.27368164 1273.12698364 C143.87710777 1274.45247589 140.56077347 1274.54730323 136.96118164 1274.68948364 C132.47375325 1274.49666125 132.47375325 1274.49666125 128.71118164 1276.12698364 C127.15961773 1276.24800638 125.60308015 1276.30657763 124.04711914 1276.33792114 C123.0893457 1276.36628052 122.13157227 1276.39463989 121.14477539 1276.42385864 C119.12932164 1276.47533894 117.11367398 1276.51978117 115.09790039 1276.55667114 C114.13239258 1276.58760864 113.16688477 1276.61854614 112.17211914 1276.65042114 C111.29346191 1276.67024048 110.41480469 1276.69005981 109.50952148 1276.71047974 C106.57401707 1277.00194991 106.57401707 1277.00194991 103.66322327 1278.62875366 C99.04982336 1280.64402503 94.64943012 1280.54810985 89.68017578 1280.51516724 C88.69713974 1280.52042419 87.7141037 1280.52568115 86.70127869 1280.53109741 C83.46613465 1280.54425289 80.23148656 1280.53557421 76.99633789 1280.52542114 C74.73864142 1280.52744331 72.48094558 1280.53035594 70.22325134 1280.53411865 C65.49658984 1280.53853613 60.77009869 1280.53212997 56.04345703 1280.51809692 C49.99649759 1280.5010154 43.94993795 1280.51084361 37.9029932 1280.52881432 C33.24202993 1280.539676 28.58116079 1280.53619466 23.92019463 1280.52843094 C21.69114573 1280.52643502 19.46208818 1280.52886674 17.23304939 1280.5358696 C14.1123314 1280.54352208 10.99225265 1280.53182588 7.87158203 1280.51516724 C6.95756622 1280.52123993 6.04355042 1280.52731262 5.10183716 1280.53356934 C-0.7165927 1280.47627749 -4.93267486 1279.39842533 -10.28881836 1277.12698364 C-13.04948546 1276.66042344 -13.04948546 1276.66042344 -15.62866211 1276.65042114 C-16.54583008 1276.61948364 -17.46299805 1276.58854614 -18.40795898 1276.55667114 C-19.33801758 1276.53862427 -20.26807617 1276.52057739 -21.22631836 1276.50198364 C-23.11054302 1276.45123012 -24.99467241 1276.39675404 -26.87866211 1276.33792114 C-27.70229248 1276.32035767 -28.52592285 1276.30279419 -29.37451172 1276.28469849 C-31.28881836 1276.12698364 -31.28881836 1276.12698364 -32.28881836 1275.12698364 C-35.38178671 1274.88935315 -38.46697417 1274.73182046 -41.56616211 1274.60940552 C-45.58334494 1274.40025946 -48.61005983 1273.6759346 -52.28881836 1272.12698364 C-54.19794532 1271.87399824 -56.11687496 1271.68655302 -58.03881836 1271.56448364 C-63.1886753 1271.2271267 -63.1886753 1271.2271267 -64.28881836 1270.12698364 C-67.29241376 1269.84071056 -70.29621943 1269.67832609 -73.30834961 1269.50588989 C-76.18095792 1269.14069591 -77.78310016 1268.47177161 -80.28881836 1267.12698364 C-82.27986076 1266.71678203 -82.27986076 1266.71678203 -84.28881836 1266.56448364 C-87.05337415 1266.29990701 -89.60250089 1265.83066527 -92.28881836 1265.12698364 C-94.64547719 1264.62000494 -97.00368056 1264.12125146 -99.36303711 1263.62698364 C-101.28881836 1263.12698364 -101.28881836 1263.12698364 -102.28881836 1262.12698364 C-103.78378678 1261.91998801 -105.28547756 1261.76019106 -106.78881836 1261.62698364 C-111.17770725 1261.23809475 -111.17770725 1261.23809475 -112.28881836 1260.12698364 C-113.63557523 1259.80281897 -114.99184414 1259.51781565 -116.35131836 1259.25198364 C-119.50968287 1258.58627448 -122.41894986 1257.76594752 -125.41381836 1256.56448364 C-129.04902024 1255.11916241 -132.40335421 1254.53171949 -136.28881836 1254.12698364 C-136.28881836 1253.46698364 -136.28881836 1252.80698364 -136.28881836 1252.12698364 C-136.9062793 1252.10120239 -137.52374023 1252.07542114 -138.15991211 1252.04885864 C-143.73304819 1251.6756197 -147.8799182 1250.62176107 -152.87084961 1248.16604614 C-155.65975406 1246.96758317 -158.39341034 1246.30244068 -161.35131836 1245.62698364 C-165.818914 1244.58813993 -169.54398038 1243.21600057 -173.56225586 1241.03323364 C-176.03886415 1239.73329445 -178.62354442 1238.95988175 -181.28881836 1238.12698364 C-183.3179516 1237.36901947 -185.33943534 1236.5933108 -187.35913086 1235.81057739 C-189.3162486 1235.11726645 -191.26791191 1234.59852848 -193.28881836 1234.12698364 C-193.28881836 1233.46698364 -193.28881836 1232.80698364 -193.28881836 1232.12698364 C-194.48506836 1232.04448364 -195.68131836 1231.96198364 -196.91381836 1231.87698364 C-201.24498455 1231.34508604 -203.71854512 1229.65592719 -207.28881836 1227.12698364 C-208.69039339 1226.54738494 -210.10840488 1226.00623012 -211.53881836 1225.50198364 C-215.28881836 1224.12698364 -215.28881836 1224.12698364 -217.28881836 1222.12698364 C-218.93571775 1221.66214997 -220.58374042 1221.20088094 -222.23754883 1220.76126099 C-226.11560061 1219.56212048 -229.7077009 1217.71016168 -233.35131836 1215.93948364 C-234.17970215 1215.54092163 -235.00808594 1215.14235962 -235.86157227 1214.73171997 C-238.34016203 1213.53590912 -240.81449138 1212.33158355 -243.28881836 1211.12698364 C-244.68069217 1210.45760202 -246.0726153 1209.78832295 -247.46459961 1209.11917114 C-248.69814473 1208.51857752 -249.93124885 1207.91707692 -251.16381836 1207.31448364 C-252.23374023 1206.79241333 -253.30366211 1206.27034302 -254.40600586 1205.73245239 C-257.32037368 1204.10941015 -259.73659662 1202.26556945 -262.28881836 1200.12698364 C-265.53642832 1197.99039814 -268.81706705 1196.49122876 -272.40209961 1195.00588989 C-275.19193957 1193.706275 -277.71945579 1192.05763458 -280.30053711 1190.38870239 C-282.20015166 1189.18324954 -284.13008203 1188.08512613 -286.10131836 1187.00198364 C-288.71909932 1185.46211249 -290.20851015 1184.20729185 -292.28881836 1182.12698364 C-293.15506836 1181.79698364 -294.02131836 1181.46698364 -294.91381836 1181.12698364 C-295.69756836 1180.79698364 -296.48131836 1180.46698364 -297.28881836 1180.12698364 C-297.61881836 1179.13698364 -297.94881836 1178.14698364 -298.28881836 1177.12698364 C-300.27999244 1176.43440135 -302.28093196 1175.76950729 -304.28881836 1175.12698364 C-305.30901409 1174.14759574 -306.31031641 1173.14802915 -307.28881836 1172.12698364 C-308.15506836 1171.79698364 -309.02131836 1171.46698364 -309.91381836 1171.12698364 C-310.69756836 1170.79698364 -311.48131836 1170.46698364 -312.28881836 1170.12698364 C-312.61881836 1169.13698364 -312.94881836 1168.14698364 -313.28881836 1167.12698364 C-314.13444336 1166.85885864 -314.98006836 1166.59073364 -315.85131836 1166.31448364 C-319.59776559 1165.02025642 -321.91759749 1163.33383576 -324.99975586 1160.91213989 C-328.54223672 1158.14948844 -332.21710968 1155.57177391 -335.87084961 1152.95901489 C-337.86938896 1151.44477425 -339.54034046 1149.90659172 -341.28881836 1148.12698364 C-342.03131836 1147.71448364 -342.77381836 1147.30198364 -343.53881836 1146.87698364 C-346.05886618 1145.27331685 -347.68717952 1143.76965492 -349.72631836 1141.62698364 C-351.90731825 1139.36624827 -353.29042965 1138.12621303 -356.16381836 1136.75198364 C-360.27782402 1134.6127007 -362.92952646 1131.58033551 -366.12866211 1128.26370239 C-368.63295096 1125.78658485 -371.32442301 1124.01915089 -374.28881836 1122.12698364 C-377.05819823 1119.90744422 -379.81564608 1117.67548096 -382.28881836 1115.12698364 C-382.28881836 1114.46698364 -382.28881836 1113.80698364 -382.28881836 1113.12698364 C-382.86631836 1112.85885864 -383.44381836 1112.59073364 -384.03881836 1112.31448364 C-387.43808283 1110.52042739 -389.74534254 1109.0485296 -391.72631836 1105.68948364 C-393.51632911 1102.75386601 -395.5753383 1101.19779737 -398.28881836 1099.12698364 C-398.61881836 1098.46698364 -398.94881836 1097.80698364 -399.28881836 1097.12698364 C-400.27881836 1096.79698364 -401.26881836 1096.46698364 -402.28881836 1096.12698364 C-402.76319336 1095.32260864 -403.23756836 1094.51823364 -403.72631836 1093.68948364 C-405.44909399 1090.8641316 -406.42461097 1090.51289044 -409.28881836 1089.12698364 C-409.75288086 1088.16792114 -409.75288086 1088.16792114 -410.22631836 1087.18948364 C-411.17976863 1084.89396563 -411.17976863 1084.89396563 -413.78881836 1083.62698364 C-416.28881836 1082.12698364 -416.28881836 1082.12698364 -417.15600586 1080.29104614 C-418.61362343 1077.50649395 -420.50923463 1076.00962021 -422.91381836 1074.00198364 C-424.408465 1072.75251563 -425.87687382 1071.46920252 -427.28881836 1070.12698364 C-427.28881836 1069.46698364 -427.28881836 1068.80698364 -427.28881836 1068.12698364 C-427.94881836 1068.12698364 -428.60881836 1068.12698364 -429.28881836 1068.12698364 C-432.52173034 1064.98755345 -435.47937867 1061.53470485 -437.72631836 1057.62698364 C-439.32171568 1055.07434793 -440.99746826 1053.39208197 -443.16381836 1051.31448364 C-446.44625877 1048.12788091 -448.78512362 1044.99723183 -451.08178711 1041.06448364 C-453.12590585 1037.78330923 -455.71148317 1034.99499574 -458.28881836 1032.12698364 C-459.41880137 1030.86057899 -460.54393748 1029.58983033 -461.66381836 1028.31448364 C-462.16655273 1027.75116333 -462.66928711 1027.18784302 -463.18725586 1026.60745239 C-464.28881836 1025.12698364 -464.28881836 1025.12698364 -464.28881836 1023.12698364 C-464.94881836 1023.12698364 -465.60881836 1023.12698364 -466.28881836 1023.12698364 C-466.93850586 1021.73479614 -466.93850586 1021.73479614 -467.60131836 1020.31448364 C-469.07711664 1017.52686466 -470.09698682 1016.23114192 -472.28881836 1014.12698364 C-473.2334567 1012.73221562 -474.17523393 1011.33540231 -475.10058594 1009.92776489 C-477.32988444 1006.54923484 -479.62642877 1003.21632781 -481.91381836 999.87698364 C-482.40366211 999.15768677 -482.89350586 998.43838989 -483.39819336 997.69729614 C-483.86999023 997.00893677 -484.34178711 996.32057739 -484.82788086 995.61135864 C-485.25278809 994.98970825 -485.67769531 994.36805786 -486.11547852 993.72756958 C-487.33363819 991.98067905 -487.33363819 991.98067905 -489.28881836 990.12698364 C-489.28881836 989.46698364 -489.28881836 988.80698364 -489.28881836 988.12698364 C-489.94881836 987.79698364 -490.60881836 987.46698364 -491.28881836 987.12698364 C-492.30729322 985.13632823 -493.30399813 983.13450179 -494.28881836 981.12698364 C-494.99006836 980.07510864 -495.69131836 979.02323364 -496.41381836 977.93948364 C-498.28881836 975.12698364 -498.28881836 975.12698364 -499.28881836 972.12698364 C-499.73870117 971.68354614 -500.18858398 971.24010864 -500.65209961 970.78323364 C-502.78297384 968.62693132 -504.02888966 966.28596378 -505.47631836 963.62698364 C-506.00612305 962.66792114 -506.53592773 961.70885864 -507.08178711 960.72073364 C-508.28881836 958.12698364 -508.28881836 958.12698364 -508.28881836 955.12698364 C-509.27881836 954.79698364 -510.26881836 954.46698364 -511.28881836 954.12698364 C-512.32739258 951.84817505 -512.32739258 951.84817505 -513.28881836 949.12698364 C-514.05999401 947.6020619 -514.85491219 946.08894373 -515.67163086 944.58792114 C-516.11635742 943.76034302 -516.56108398 942.93276489 -517.01928711 942.08010864 C-517.95401352 940.352043 -518.89154565 938.62549225 -519.83178711 936.90042114 C-520.27393555 936.07542114 -520.71608398 935.25042114 -521.17163086 934.40042114 C-521.57784668 933.65195923 -521.9840625 932.90349731 -522.40258789 932.13235474 C-523.28881836 930.12698364 -523.28881836 930.12698364 -523.28881836 927.12698364 C-524.27881836 926.79698364 -525.26881836 926.46698364 -526.28881836 926.12698364 C-527.01928711 924.06057739 -527.01928711 924.06057739 -527.47631836 921.56448364 C-527.63487305 920.73819458 -527.79342773 919.91190552 -527.95678711 919.06057739 C-528.06635742 918.42249146 -528.17592773 917.78440552 -528.28881836 917.12698364 C-528.94881836 917.12698364 -529.60881836 917.12698364 -530.28881836 917.12698364 C-530.62655273 916.30713989 -530.96428711 915.48729614 -531.31225586 914.64260864 C-531.9812793 913.02612427 -531.9812793 913.02612427 -532.66381836 911.37698364 C-533.10467773 910.30963989 -533.54553711 909.24229614 -533.99975586 908.14260864 C-535.02361655 905.74739515 -536.106521 903.44466179 -537.28881836 901.12698364 C-540.18673867 894.95658188 -542.89659503 888.7367998 -545.39038086 882.39260864 C-546.15768665 880.45766361 -546.96886321 878.54021233 -547.78881836 876.62698364 C-551.04608545 869.02669376 -553.9303575 861.37531607 -556.50097656 853.51565552 C-557.53840201 850.34924216 -558.60919704 847.21878562 -559.85131836 844.12698364 C-561.55407252 839.74022717 -562.63099668 835.17262943 -563.80639648 830.62405396 C-564.84170145 826.6633183 -566.04650391 822.88682083 -567.56616211 819.09182739 C-570.12874828 812.12436336 -572.28881836 804.5663009 -572.28881836 797.12698364 C-572.94881836 796.79698364 -573.60881836 796.46698364 -574.28881836 796.12698364 C-574.85351562 794.20657349 -574.85351562 794.20657349 -575.29272461 791.71292114 C-575.45788574 790.80638794 -575.62304688 789.89985474 -575.79321289 788.96585083 C-575.9567627 788.02902466 -576.1203125 787.09219849 -576.28881836 786.12698364 C-576.60868017 784.41051026 -576.93026493 782.69435695 -577.25366211 780.97854614 C-577.41237793 780.12478394 -577.57109375 779.27102173 -577.73461914 778.39138794 C-579.56362398 768.54583949 -579.56362398 768.54583949 -581.91381836 758.81448364 C-583.25772886 753.71340402 -583.9340719 748.60707702 -584.51977539 743.37722778 C-584.98559052 739.29823679 -585.60432218 735.29743061 -586.39477539 731.2649231 C-588.2443583 721.81646519 -589.01177597 712.37453937 -589.64233398 702.77200317 C-589.71387695 701.69547485 -589.78541992 700.61894653 -589.85913086 699.50979614 C-589.94831787 698.06177612 -589.94831787 698.06177612 -590.03930664 696.58450317 C-590.21186711 693.99319859 -590.21186711 693.99319859 -591.28881836 691.12698364 C-591.38125206 689.70865949 -591.41937657 688.28641125 -591.42253113 686.86508179 C-591.4289286 685.56146194 -591.4289286 685.56146194 -591.43545532 684.23150635 C-591.43500214 683.28081268 -591.43454895 682.33011902 -591.43408203 681.35061646 C-591.43744064 680.34705109 -591.44079926 679.34348572 -591.44425964 678.30950928 C-591.45377883 674.98302989 -591.4557134 671.65660081 -591.45678711 668.33010864 C-591.45999958 666.01945983 -591.46336364 663.70881122 -591.46687317 661.39816284 C-591.47286726 656.54930144 -591.47471284 651.70045787 -591.47412109 646.85159302 C-591.47401958 640.64308653 -591.487659 634.4346947 -591.5048933 628.22621536 C-591.51602243 623.45121742 -591.51804 618.67624708 -591.51751137 613.90123749 C-591.5186906 611.61274572 -591.52310916 609.32425323 -591.53084373 607.03577423 C-591.54065961 603.83074471 -591.53775888 600.6259626 -591.53173828 597.42092896 C-591.54016754 596.00703384 -591.54016754 596.00703384 -591.54876709 594.5645752 C-591.52396643 589.35929515 -590.98802259 585.05581064 -589.28881836 580.12698364 C-589.94881836 579.79698364 -590.60881836 579.46698364 -591.28881836 579.12698364 C-590.62881836 579.12698364 -589.96881836 579.12698364 -589.28881836 579.12698364 C-589.30041992 578.11378052 -589.31202148 577.10057739 -589.32397461 576.05667114 C-589.33336045 574.7051105 -589.34245979 573.35354784 -589.35131836 572.00198364 C-589.35969727 571.33682739 -589.36807617 570.67167114 -589.37670898 569.98635864 C-589.39670182 565.90782015 -589.05460326 562.1272726 -588.28881836 558.12698364 C-587.78294894 554.83488028 -587.28536801 551.54159814 -586.78881836 548.24807739 C-586.48464739 546.34938517 -586.14906266 544.45492313 -585.75756836 542.57229614 C-585.07012329 538.98612437 -584.85253654 535.38485526 -584.57006836 531.74807739 C-584.32174318 529.4338247 -583.85853247 527.37492536 -583.28881836 525.12698364 C-583.07442496 523.38007445 -582.88774183 521.62958135 -582.72631836 519.87698364 C-582.6425293 518.98495239 -582.55874023 518.09292114 -582.47241211 517.17385864 C-582.41182617 516.49838989 -582.35124023 515.82292114 -582.28881836 515.12698364 C-581.62881836 515.12698364 -580.96881836 515.12698364 -580.28881836 515.12698364 C-579.95881836 511.16698364 -579.62881836 507.20698364 -579.28881836 503.12698364 C-578.62881836 503.12698364 -577.96881836 503.12698364 -577.28881836 503.12698364 C-577.78381836 501.64198364 -577.78381836 501.64198364 -578.28881836 500.12698364 C-577.94897461 497.64651489 -577.94897461 497.64651489 -577.35131836 494.93948364 C-577.0593457 493.58790161 -577.0593457 493.58790161 -576.76147461 492.20901489 C-576.60549805 491.52194458 -576.44952148 490.83487427 -576.28881836 490.12698364 C-575.62881836 490.12698364 -574.96881836 490.12698364 -574.28881836 490.12698364 C-574.61881836 489.13698364 -574.94881836 488.14698364 -575.28881836 487.12698364 C-575.01310697 485.11822922 -574.68646099 483.11519677 -574.28881836 481.12698364 C-573.62881836 481.12698364 -572.96881836 481.12698364 -572.28881836 481.12698364 C-572.30944336 479.86885864 -572.33006836 478.61073364 -572.35131836 477.31448364 C-572.39767919 474.48647277 -572.20574797 472.87777248 -571.28881836 470.12698364 C-570.62881836 470.12698364 -569.96881836 470.12698364 -569.28881836 470.12698364 C-569.61881836 469.13698364 -569.94881836 468.14698364 -570.28881836 467.12698364 C-569.9087124 464.52959289 -569.46386061 462.47706815 -568.28881836 460.12698364 C-566.21745453 455.0348809 -564.85777099 450.58892889 -564.28881836 445.12698364 C-563.95881836 445.12698364 -563.62881836 445.12698364 -563.28881836 445.12698364 C-563.16506836 444.01323364 -563.04131836 442.89948364 -562.91381836 441.75198364 C-562.28881836 438.12698364 -562.28881836 438.12698364 -560.28881836 436.12698364 C-559.89117573 434.13877051 -559.55106487 432.13754025 -559.28881836 430.12698364 C-558.95881836 430.12698364 -558.62881836 430.12698364 -558.28881836 430.12698364 C-556.49862532 424.83632384 -554.88557435 419.50204863 -553.28881836 414.15042114 C-552.22763614 410.94200301 -550.88454259 408.1782617 -549.22631836 405.25198364 C-548.13175072 403.01741584 -548.13175072 403.01741584 -547.78881836 399.93948364 C-547.62381836 399.01135864 -547.45881836 398.08323364 -547.28881836 397.12698364 C-546.62881836 396.79698364 -545.96881836 396.46698364 -545.28881836 396.12698364 C-544.63109408 393.09763874 -544.63109408 393.09763874 -544.28881836 390.12698364 C-543.62881836 390.12698364 -542.96881836 390.12698364 -542.28881836 390.12698364 C-542.28881836 388.80698364 -542.28881836 387.48698364 -542.28881836 386.12698364 C-541.62881836 385.79698364 -540.96881836 385.46698364 -540.28881836 385.12698364 C-540.14444336 384.21948364 -540.00006836 383.31198364 -539.85131836 382.37698364 C-539.24191186 378.85596829 -538.17479052 377.13056894 -536.28881836 374.12698364 C-535.68869233 372.80112381 -535.10739468 371.46667634 -534.53881836 370.12698364 C-532.81534239 366.14102956 -530.82011246 362.36857692 -528.72631836 358.56448364 C-526.79071795 355.03026634 -524.97680391 351.62589313 -523.66381836 347.81448364 C-522.29611383 344.14654877 -520.62263756 341.22844313 -518.47241211 337.98635864 C-516.53858887 334.9484053 -515.16636361 331.83105133 -513.78881836 328.50198364 C-512.28881836 325.12698364 -512.28881836 325.12698364 -510.28881836 323.12698364 C-509.58730684 321.81164954 -508.9235591 320.47580773 -508.28881836 319.12698364 C-507.62215169 317.79365031 -506.95548503 316.46031698 -506.28881836 315.12698364 C-505.62881836 315.12698364 -504.96881836 315.12698364 -504.28881836 315.12698364 C-504.16506836 314.40510864 -504.04131836 313.68323364 -503.91381836 312.93948364 C-502.61266869 307.08431015 -500.58150739 304.31497294 -496.28881836 300.12698364 C-494.67974728 297.75085499 -494.67974728 297.75085499 -493.28881836 295.12698364 C-490.59572106 290.29685367 -487.80077871 285.91384587 -484.22631836 281.68948364 C-482.18730037 279.24757463 -482.18730037 279.24757463 -481.28881836 276.43948364 C-480.28881836 274.12698364 -480.28881836 274.12698364 -478.28881836 273.18948364 C-475.30140979 271.60242284 -475.29243622 269.26328947 -474.28881836 266.12698364 C-472.97615318 264.77329768 -471.64314511 263.43898768 -470.28881836 262.12698364 C-469.95881836 261.26073364 -469.62881836 260.39448364 -469.28881836 259.50198364 C-468.05965749 256.58272657 -467.03627999 256.45640056 -464.28881836 255.12698364 C-463.92333391 253.80210251 -463.59506176 252.46679851 -463.28881836 251.12698364 C-461.45284064 248.59460058 -459.57065729 246.39120764 -457.28881836 244.25198364 C-455.15936224 241.98943651 -453.84354227 239.59221841 -452.36303711 236.87698364 C-450.71519648 234.19250146 -448.65417027 232.18110504 -446.28881836 230.12698364 C-445.62881836 230.12698364 -444.96881836 230.12698364 -444.28881836 230.12698364 C-444.28881836 229.13698364 -444.28881836 228.14698364 -444.28881836 227.12698364 C-442.97751914 225.77197445 -441.64190149 224.44027021 -440.28881836 223.12698364 C-439.99620117 222.49534302 -439.70358398 221.86370239 -439.40209961 221.21292114 C-438.07160611 218.71999648 -436.54381995 217.45736667 -434.35131836 215.68948364 C-431.21720598 213.06452309 -429.33520897 210.68124102 -427.28881836 207.12698364 C-426.29881836 207.12698364 -425.30881836 207.12698364 -424.28881836 207.12698364 C-424.61881836 206.13698364 -424.94881836 205.14698364 -425.28881836 204.12698364 C-424.29881836 203.79698364 -423.30881836 203.46698364 -422.28881836 203.12698364 C-422.00006836 202.52885864 -421.71131836 201.93073364 -421.41381836 201.31448364 C-419.92168159 198.4131066 -417.84236133 197.16981802 -415.28881836 195.12698364 C-414.2048174 193.93790096 -413.14440313 192.72711623 -412.10131836 191.50198364 C-407.77152928 186.43319336 -403.03376305 181.80327158 -398.28881836 177.12698364 C-397.00104492 175.82374146 -397.00104492 175.82374146 -395.68725586 174.49417114 C-393.85498896 172.68577743 -392.0511623 171.03347187 -390.03881836 169.43948364 C-387.27139642 167.42275145 -387.27139642 167.42275145 -386.28881836 165.12698364 C-385.24274414 164.79053833 -385.24274414 164.79053833 -384.17553711 164.44729614 C-379.94659815 162.5130859 -377.2698123 159.34595321 -374.10131836 156.00198364 C-372.86239668 154.70333958 -371.61912183 153.40882993 -370.37084961 152.11917114 C-369.5545105 151.25848022 -369.5545105 151.25848022 -368.72167969 150.38040161 C-367.28881836 149.12698364 -367.28881836 149.12698364 -365.28881836 149.12698364 C-364.95881836 148.46698364 -364.62881836 147.80698364 -364.28881836 147.12698364 C-363.29881836 147.12698364 -362.30881836 147.12698364 -361.28881836 147.12698364 C-361.02713867 146.53014771 -360.76545898 145.93331177 -360.49584961 145.31838989 C-357.64254726 140.13812253 -352.22979109 137.09156728 -347.28881836 134.12698364 C-345.50293879 132.59622973 -343.75867258 131.03202151 -342.03491211 129.43167114 C-340.12102213 128.0016057 -338.62156675 127.54555119 -336.28881836 127.12698364 C-336.28881836 126.46698364 -336.28881836 125.80698364 -336.28881836 125.12698364 C-334.46069336 123.72463989 -334.46069336 123.72463989 -332.03881836 122.18948364 C-329.66691691 120.67410216 -327.35674847 119.17921871 -325.12475586 117.46292114 C-323.28881836 116.12698364 -323.28881836 116.12698364 -321.16381836 115.68948364 C-320.54506836 115.50385864 -319.92631836 115.31823364 -319.28881836 115.12698364 C-319.00522461 114.50436646 -318.72163086 113.88174927 -318.42944336 113.24026489 C-317.01886542 110.62683111 -315.80402657 110.04908942 -313.16381836 108.75198364 C-309.17218368 106.67300725 -305.74354129 104.29002266 -302.19506836 101.53713989 C-299.36838524 99.44608947 -296.36210903 97.83436735 -293.28881836 96.12698364 C-290.63152627 94.41081583 -288.01632859 92.68135279 -285.49975586 90.76370239 C-284.89389648 90.30608521 -284.28803711 89.84846802 -283.66381836 89.37698364 C-283.11467773 88.94901489 -282.56553711 88.52104614 -281.99975586 88.08010864 C-280.28881836 87.12698364 -280.28881836 87.12698364 -276.28881836 87.12698364 C-275.95881836 86.13698364 -275.62881836 85.14698364 -275.28881836 84.12698364 C-273.80381836 83.63198364 -273.80381836 83.63198364 -272.28881836 83.12698364 C-269.27979788 81.7215358 -266.4881415 80.0578362 -263.66381836 78.31448364 C-258.66545066 75.29494187 -253.54093544 72.67199099 -248.28881836 70.12698364 C-246.45354825 69.23512485 -244.62016575 68.33936986 -242.78881836 67.43948364 C-241.97413086 67.04374146 -241.15944336 66.64799927 -240.32006836 66.24026489 C-238.14841276 65.17339734 -238.14841276 65.17339734 -236.28881836 63.12698364 C-235.62881836 63.12698364 -234.96881836 63.12698364 -234.28881836 63.12698364 C-234.28881836 62.79698364 -234.28881836 62.46698364 -234.28881836 62.12698364 C-233.14413086 61.78667114 -233.14413086 61.78667114 -231.97631836 61.43948364 C-225.35423637 59.08247141 -219.02511782 56.04769425 -212.78881836 52.81448364 C-209.28881836 51.12698364 -209.28881836 51.12698364 -206.28881836 51.12698364 C-205.95881836 50.46698364 -205.62881836 49.80698364 -205.28881836 49.12698364 C-202.52652648 48.04672497 -199.78782234 47.06030132 -196.97631836 46.12698364 C-195.43774241 45.60856439 -193.8999537 45.08780176 -192.36303711 44.56448364 C-191.67814209 44.33631958 -190.99324707 44.10815552 -190.28759766 43.87307739 C-188.24493877 43.16383293 -188.24493877 43.16383293 -186.28417969 42.03713989 C-184.28881836 41.12698364 -184.28881836 41.12698364 -180.28881836 41.12698364 C-180.28881836 40.46698364 -180.28881836 39.80698364 -180.28881836 39.12698364 C-176.35936393 37.45994237 -172.40167986 36.26156613 -168.28881836 35.12698364 C-166.97593276 34.75333589 -165.66341751 34.3783838 -164.35131836 34.00198364 C-162.83538086 33.56885864 -162.83538086 33.56885864 -161.28881836 33.12698364 C-161.28881836 32.79698364 -161.28881836 32.46698364 -161.28881836 32.12698364 C-160.70874023 32.00581177 -160.12866211 31.88463989 -159.53100586 31.75979614 C-155.00853394 30.7896289 -150.6513087 29.69300582 -146.28881836 28.12698364 C-146.28881836 27.79698364 -146.28881836 27.46698364 -146.28881836 27.12698364 C-145.17506836 27.00323364 -144.06131836 26.87948364 -142.91381836 26.75198364 C-139.25778159 26.48040234 -139.25778159 26.48040234 -137.28881836 24.12698364 C-134.96063872 23.75937633 -132.62697986 23.42456783 -130.28881836 23.12698364 C-129.95881836 22.79698364 -129.62881836 22.46698364 -129.28881836 22.12698364 C-126.61822985 21.98583203 -123.96449598 22.08451257 -121.28881836 22.12698364 C-121.28881836 21.46698364 -121.28881836 20.80698364 -121.28881836 20.12698364 C-115.84381836 19.63198364 -115.84381836 19.63198364 -110.28881836 19.12698364 C-110.28881836 18.46698364 -110.28881836 17.80698364 -110.28881836 17.12698364 C-107.31881836 17.12698364 -104.34881836 17.12698364 -101.28881836 17.12698364 C-101.28881836 16.46698364 -101.28881836 15.80698364 -101.28881836 15.12698364 C-97.32881836 14.46698364 -93.36881836 13.80698364 -89.28881836 13.12698364 C-89.28881836 12.79698364 -89.28881836 12.46698364 -89.28881836 12.12698364 C-88.55276367 12.07799927 -87.81670898 12.02901489 -87.05834961 11.97854614 C-85.59461914 11.86639771 -85.59461914 11.86639771 -84.10131836 11.75198364 C-83.13838867 11.68237427 -82.17545898 11.61276489 -81.18334961 11.54104614 C-78.25597459 11.12228534 -76.01682841 10.22942828 -73.28881836 9.12698364 C-70.64819336 8.74807739 -70.64819336 8.74807739 -68.03881836 8.56448364 C-64.85793863 8.57203379 -64.85793863 8.57203379 -62.28881836 7.12698364 C-60.25042885 6.94086982 -58.20750657 6.80353913 -56.16381836 6.68948364 C-52.50054752 6.43944457 -49.3832911 6.15446662 -45.85131836 5.12698364 C-41.00238533 3.76587963 -36.21883876 3.63179522 -31.20288086 3.37307739 C-28.39860015 3.45179711 -28.39860015 3.45179711 -27.28881836 2.12698364 C-25.83725776 1.98238659 -24.3793655 1.90001253 -22.92163086 1.84573364 C-22.03604492 1.80835083 -21.15045898 1.77096802 -20.23803711 1.73245239 C-19.30604492 1.69764771 -18.37405273 1.66284302 -17.41381836 1.62698364 C-15.58293533 1.55803826 -13.7521908 1.48528188 -11.92163086 1.40823364 C-11.10581543 1.37794067 -10.29 1.34764771 -9.44946289 1.31643677 C-6.14788145 1.02694217 -3.37522135 0.00167381 0 0 Z " fill="#39B549" transform="translate(591.288818359375,-0.126983642578125)"/>
<path d="M0 0 C4.14467014 1.92699093 7.1500771 4.68996351 10.4375 7.8125 C11.10201172 8.43833984 11.76652344 9.06417969 12.45117188 9.70898438 C21.41206666 18.23085019 30.0949304 27.04432962 38.79467773 35.83129883 C39.40705795 36.44797928 40.01943817 37.06465973 40.65037537 37.70002747 C41.796149 38.85403823 42.9398647 40.01009805 44.08094788 41.16874695 C46.8802921 43.98530872 49.73882676 46.67018674 52.75048828 49.25927734 C57.91047798 53.72572749 62.72154313 58.53759763 67.5546875 63.3515625 C68.04131992 63.83536755 68.52795235 64.31917259 69.02933121 64.8176384 C71.59547001 67.36891862 74.15882499 69.92295536 76.71972656 72.47949219 C79.35577923 75.11002262 82.00101609 77.73111525 84.64842033 80.350214 C86.69522652 82.37838947 88.73528701 84.41324887 90.77356339 86.44999313 C91.74627544 87.41968845 92.72147636 88.38689407 93.69924545 89.35149002 C95.0629191 90.69806571 96.41621341 92.05512792 97.76904297 93.41259766 C98.53989227 94.17980133 99.31074158 94.947005 100.10494995 95.73745728 C102.07955636 98.09498412 102.93233458 100.14348663 104 103 C61.09831389 146.02161499 18.19231003 189.03892171 -24.73678589 232.03318787 C-25.68923082 232.9870824 -25.68923082 232.9870824 -26.66091707 233.96024753 C-40.4590951 247.77937399 -54.25805201 261.59772245 -68.05781192 275.41526923 C-74.82481906 282.19100802 -81.59165399 288.96691879 -88.35839844 295.74291992 C-89.03178794 296.41722474 -89.70517744 297.09152955 -90.39897268 297.78626784 C-112.24090597 319.65805159 -134.07143551 341.54117592 -155.89610481 363.43018535 C-178.31646411 385.91652097 -200.74822949 408.39141554 -223.19449134 430.85189627 C-226.36199212 434.02141425 -229.52936171 437.1910633 -232.69665146 440.36079216 C-233.32004779 440.98466045 -233.94344412 441.60852874 -234.58573124 442.25130213 C-244.63633595 452.31019158 -254.67477879 462.38113497 -264.7087698 472.45659404 C-274.78692648 482.57588666 -284.87768018 492.68247487 -294.98156758 502.77607722 C-300.99038465 508.77955425 -306.98915993 514.79268116 -312.97424096 520.81982376 C-316.96787334 524.83960848 -320.97396311 528.84667772 -324.99062635 532.84344905 C-327.28246988 535.12467338 -329.56629185 537.41302026 -331.83907486 539.71325714 C-334.28309524 542.18509009 -336.74738301 544.63469091 -339.21827888 547.07961369 C-339.9260766 547.80580049 -340.63387431 548.5319873 -341.36312044 549.28017977 C-346.17340532 553.97580402 -346.17340532 553.97580402 -350.2844615 554.09614235 C-352.8300592 553.06859756 -354.31691733 552.30520803 -356.23033714 550.38210869 C-356.79817653 549.82360784 -357.36601592 549.265107 -357.95106256 548.68968189 C-358.55457123 548.07092689 -359.1580799 547.4521719 -359.77987671 546.81466675 C-360.43681066 546.16129935 -361.09374461 545.50793196 -361.77058566 544.83476555 C-363.97028281 542.64096526 -366.15161817 540.42977459 -368.33349609 538.21826172 C-369.90650583 536.64220461 -371.48062537 535.06725449 -373.05577087 533.49333191 C-377.33351217 529.21275037 -381.59571604 524.91698984 -385.85549498 520.61854315 C-390.31748472 516.12157734 -394.79403349 511.63915463 -399.26919556 507.15530396 C-406.78729031 499.61884383 -414.29694582 492.07408146 -421.79980469 484.52246094 C-429.50850326 476.76372328 -437.22094717 469.00874764 -444.93945312 461.25976562 C-445.41425985 460.78307988 -445.88906657 460.30639414 -446.37826137 459.81526338 C-451.56845027 454.60472925 -456.75958783 449.39514099 -461.95115089 444.18597603 C-463.78722794 442.34363969 -465.62330468 440.50130303 -467.4593811 438.65896606 C-468.80460655 437.30924404 -468.80460655 437.30924404 -470.17700827 435.93225491 C-475.49904857 430.59156624 -480.81713562 425.24698004 -486.13175559 419.89890742 C-489.44451047 416.56589332 -492.75922075 413.23482827 -496.07426643 409.90409279 C-497.60699599 408.36312703 -499.13882411 406.82126404 -500.66966438 405.2784214 C-502.76613773 403.16566659 -504.86578454 401.05611367 -506.96615601 398.94723511 C-507.86472684 398.03917911 -507.86472684 398.03917911 -508.78145063 397.11277854 C-512.45954493 393.42767249 -516.27648439 389.96272666 -520.2147671 386.55760956 C-522.22853473 384.80060423 -524.14896129 382.97424346 -526.03710938 381.08314514 C-527.07592506 380.04639145 -527.07592506 380.04639145 -528.13572693 378.98869324 C-528.86437454 378.25645035 -529.59302216 377.52420746 -530.34375 376.76977539 C-531.13495743 375.97871399 -531.92616486 375.18765259 -532.74134827 374.37261963 C-535.32994579 371.78333101 -537.91499312 369.19052915 -540.5 366.59765625 C-542.30438712 364.79140209 -544.10899661 362.98537005 -545.91381836 361.17955017 C-550.1617808 356.92817273 -554.40751088 352.67457853 -558.65214252 348.41987652 C-563.4894167 343.57137828 -568.32957159 338.72576009 -573.16995621 333.8803674 C-583.11648563 323.92341923 -593.05943868 313.9629062 -603 304 C-601.11503292 299.90891116 -598.37769621 297.10297315 -595.20849609 293.96557617 C-594.61633301 293.37151474 -594.02416992 292.77745331 -593.4140625 292.16539001 C-591.45537293 290.20299686 -589.48957414 288.2478984 -587.5234375 286.29296875 C-586.15504076 284.92576492 -584.78701436 283.55819034 -583.41934204 282.19026184 C-580.54908315 279.32156749 -577.67549621 276.45626359 -574.79931641 273.59350586 C-571.12935785 269.94046469 -567.46594306 266.28094877 -563.80481529 262.61905956 C-560.9773789 259.79189653 -558.14733219 256.96735863 -555.31642532 254.14367104 C-553.96597045 252.7963795 -552.6161038 251.44849807 -551.26685715 250.09999657 C-539.03677641 237.88405087 -539.03677641 237.88405087 -532.71292114 232.50068665 C-529.64611834 229.8138671 -526.84566654 226.86917205 -524.015625 223.9375 C-522.73887001 222.63353785 -521.46150927 221.33016857 -520.18359375 220.02734375 C-518.200461 218.00068002 -516.2215271 215.97049704 -514.25244141 213.93017578 C-512.33059797 211.9420782 -510.39350383 209.96998799 -508.453125 208 C-507.86452698 207.3824585 -507.27592896 206.76491699 -506.66949463 206.12866211 C-504.98925781 204.4375 -504.98925781 204.4375 -502 202 C-498.3958283 202.23952917 -496.64823964 203.98991705 -494.18457031 206.49072266 C-493.4499054 207.22884186 -492.71524048 207.96696106 -491.95831299 208.72744751 C-491.17285095 209.53153046 -490.38738892 210.3356134 -489.578125 211.1640625 C-488.34990021 212.40221207 -488.34990021 212.40221207 -487.09686279 213.66537476 C-484.47406841 216.31159864 -481.8615972 218.9677287 -479.25 221.625 C-476.65104917 224.25916305 -474.04993669 226.89113664 -471.44598389 229.52035522 C-469.82652167 231.1566096 -468.21016717 232.79594778 -466.59747314 234.43887329 C-465.85019958 235.19590546 -465.10292603 235.95293762 -464.33300781 236.73291016 C-463.68777161 237.38941559 -463.0425354 238.04592102 -462.37774658 238.72232056 C-460.39724149 240.61947636 -458.38133491 242.40942516 -456.30386353 244.1971283 C-451.59121995 248.29517338 -447.20139708 252.68050897 -442.80517578 257.11303711 C-441.922742 257.99853745 -441.04030823 258.88403778 -440.13113403 259.79637146 C-438.22691737 261.70770762 -436.32362004 263.61990983 -434.42178726 265.5336132 C-431.40560695 268.5682615 -428.3849304 271.59840806 -425.36349487 274.62782288 C-416.77741586 283.23792132 -408.19730174 291.85394924 -399.62158203 300.47436523 C-394.87364843 305.24696548 -390.12203301 310.01587018 -385.36655414 314.78095251 C-382.37124627 317.78274525 -379.38047057 320.78895519 -376.39313912 323.79868495 C-374.08406103 326.12240052 -371.76830314 328.43944479 -369.45361328 330.75756836 C-368.64186646 331.57807678 -367.83011963 332.39858521 -366.99377441 333.24395752 C-361.63671594 338.59201609 -356.00229434 343.38920803 -350 348 C-345.89845727 346.37374154 -343.14996555 343.42544548 -340.10419846 340.35029411 C-339.22100945 339.47056664 -339.22100945 339.47056664 -338.31997824 338.57306689 C-336.33636251 336.59477025 -334.35999622 334.60938476 -332.38348389 332.62399292 C-330.95327776 331.19465847 -329.52263242 329.7657634 -328.09158444 328.33727181 C-324.15116529 324.40133767 -320.21703122 320.45917256 -316.28386307 316.51599431 C-312.04483016 312.26834582 -307.80004111 308.02645667 -303.55593872 303.78387451 C-296.2004484 296.42943424 -288.84860014 289.07136648 -281.49929047 281.71075058 C-273.79032906 273.98996005 -266.07930751 266.27123673 -258.36551666 258.55527115 C-257.88611564 258.07573264 -257.40671461 257.59619414 -256.91278628 257.10212416 C-254.47819594 254.66685717 -252.04356867 252.23162712 -249.60892716 249.79641129 C-232.35898051 232.54226246 -215.11367663 215.28348007 -197.87109375 198.02197266 C-181.11888333 181.25139712 -164.36457614 164.48292087 -147.60742188 147.71728516 C-147.09100463 147.20060486 -146.57458739 146.68392457 -146.04252115 146.1515873 C-140.85650215 140.96293129 -135.67044045 135.77431796 -130.48434746 130.5857359 C-119.91943226 120.0157481 -109.35480209 109.44547543 -98.79034424 98.87503052 C-98.30459423 98.38900593 -97.81884422 97.90298134 -97.31837452 97.40222874 C-64.87414124 64.93959036 -32.4365743 32.47029101 0 0 Z " fill="#CCE0F2" transform="translate(889,362)"/>
<path d="M0 0 C4.62 0 9.24 0 14 0 C14 0.33 14 0.66 14 1 C9.38 1 4.76 1 0 1 C0 0.67 0 0.34 0 0 Z " fill="#000100" transform="translate(698,1277)"/>
<path d="M0 0 C4.29 0 8.58 0 13 0 C13 0.33 13 0.66 13 1 C8.71 1 4.42 1 0 1 C0 0.67 0 0.34 0 0 Z " fill="#000100" transform="translate(568,1277)"/>
<path d="M0 0 C0.33 0 0.66 0 1 0 C1 4.29 1 8.58 1 13 C0.67 13 0.34 13 0 13 C0 8.71 0 4.42 0 0 Z " fill="#000100" transform="translate(1277,699)"/>
<path d="M0 0 C0.33 0 0.66 0 1 0 C1 4.29 1 8.58 1 13 C0.67 13 0.34 13 0 13 C0 8.71 0 4.42 0 0 Z " fill="#000100" transform="translate(1277,568)"/>
<path d="M0 0 C2.31 0 4.62 0 7 0 C7 0.33 7 0.66 7 1 C4.69 1 2.38 1 0 1 C0 0.67 0 0.34 0 0 Z " fill="#000100" transform="translate(741,1272)"/>
<path d="M0 0 C1.98 0 3.96 0 6 0 C6 0.33 6 0.66 6 1 C4.02 1 2.04 1 0 1 C0 0.67 0 0.34 0 0 Z " fill="#000100" transform="translate(721,1275)"/>
<path d="M0 0 C1.98 0 3.96 0 6 0 C6 0.33 6 0.66 6 1 C4.02 1 2.04 1 0 1 C0 0.67 0 0.34 0 0 Z " fill="#000100" transform="translate(553,1275)"/>
<path d="M0 0 C1.98 0 3.96 0 6 0 C6 0.33 6 0.66 6 1 C4.02 1 2.04 1 0 1 C0 0.67 0 0.34 0 0 Z " fill="#000100" transform="translate(533,1272)"/>
<path d="M0 0 C0.33 0 0.66 0 1 0 C1 1.98 1 3.96 1 6 C0.67 6 0.34 6 0 6 C0 4.02 0 2.04 0 0 Z " fill="#000100" transform="translate(1272,741)"/>
<path d="M0 0 C0.33 0 0.66 0 1 0 C1 1.98 1 3.96 1 6 C0.67 6 0.34 6 0 6 C0 4.02 0 2.04 0 0 Z " fill="#000100" transform="translate(1275,721)"/>
<path d="M0 0 C0.33 0 0.66 0 1 0 C1 1.98 1 3.96 1 6 C0.67 6 0.34 6 0 6 C0 4.02 0 2.04 0 0 Z " fill="#000100" transform="translate(1275,553)"/>
<path d="M0 0 C0.33 0 0.66 0 1 0 C1 1.98 1 3.96 1 6 C0.67 6 0.34 6 0 6 C0 4.02 0 2.04 0 0 Z " fill="#000100" transform="translate(1272,533)"/>
<path d="M0 0 C0.33 0 0.66 0 1 0 C1 1.98 1 3.96 1 6 C0.67 6 0.34 6 0 6 C0 4.02 0 2.04 0 0 Z " fill="#000100" transform="translate(1267,506)"/>
<path d="M0 0 C1.65 0 3.3 0 5 0 C5 0.33 5 0.66 5 1 C3.35 1 1.7 1 0 1 C0 0.67 0 0.34 0 0 Z " fill="#000100" transform="translate(522,1270)"/>
<path d="M0 0 C1.65 0 3.3 0 5 0 C5 0.33 5 0.66 5 1 C3.35 1 1.7 1 0 1 C0 0.67 0 0.34 0 0 Z " fill="#000100" transform="translate(769,1267)"/>
<path d="M0 0 C1.65 0 3.3 0 5 0 C5 0.33 5 0.66 5 1 C3.35 1 1.7 1 0 1 C0 0.67 0 0.34 0 0 Z " fill="#000100" transform="translate(506,1267)"/>
<path d="M0 0 C1.65 0 3.3 0 5 0 C5 0.33 5 0.66 5 1 C3.35 1 1.7 1 0 1 C0 0.67 0 0.34 0 0 Z " fill="#000100" transform="translate(791,1262)"/>
<path d="M0 0 C0.33 0 0.66 0 1 0 C1 1.65 1 3.3 1 5 C0.67 5 0.34 5 0 5 C0 3.35 0 1.7 0 0 Z " fill="#000100" transform="translate(1267,769)"/>
<path d="M0 0 C4 1 4 1 4 1 Z " fill="#000100" transform="translate(755,1270)"/>
<path d="M0 0 C4 1 4 1 4 1 Z " fill="#000100" transform="translate(485,1262)"/>
<path d="M0 0 C1 4 1 4 1 4 Z " fill="#000100" transform="translate(1262,791)"/>
<path d="M0 0 C1 4 1 4 1 4 Z " fill="#000100" transform="translate(1262,485)"/>
<path d="M0 0 C0.66 0.33 1.32 0.66 2 1 C1.01 1 0.02 1 -1 1 C-0.67 0.67 -0.34 0.34 0 0 Z " fill="#39B64A" transform="translate(149,223)"/>
<path d="M0 0 C3 1 3 1 3 1 Z " fill="#000100" transform="translate(811,1257)"/>
<path d="M0 0 C3 1 3 1 3 1 Z " fill="#000100" transform="translate(466,1257)"/>
<path d="M0 0 C3 1 3 1 3 1 Z " fill="#000100" transform="translate(818,1255)"/>
<path d="M0 0 C3 1 3 1 3 1 Z " fill="#000100" transform="translate(406,1237)"/>
<path d="" fill="#000100" transform="translate(0,0)"/>
<path d="" fill="#000100" transform="translate(0,0)"/>
<path d="" fill="#000100" transform="translate(0,0)"/>
<path d="" fill="#000100" transform="translate(0,0)"/>
<path d="" fill="#000100" transform="translate(0,0)"/>
<path d="" fill="#000100" transform="translate(0,0)"/>
<path d="" fill="#000100" transform="translate(0,0)"/>
<path d="M0 0 C2 1 2 1 2 1 Z " fill="#000100" transform="translate(801,1260)"/>
<path d="M0 0 C2 1 2 1 2 1 Z " fill="#000100" transform="translate(477,1260)"/>
<path d="M0 0 C2 1 2 1 2 1 Z " fill="#000100" transform="translate(460,1255)"/>
<path d="M0 0 C2 1 2 1 2 1 Z " fill="#000100" transform="translate(829,1252)"/>
<path d="M0 0 C2 1 2 1 2 1 Z " fill="#000100" transform="translate(449,1252)"/>
<path d="M0 0 C2 1 2 1 2 1 Z " fill="#000100" transform="translate(844,1247)"/>
<path d="M0 0 C2 1 2 1 2 1 Z " fill="#000100" transform="translate(434,1247)"/>
<path d="M0 0 C2 1 2 1 2 1 Z " fill="#000100" transform="translate(872,1237)"/>
<path d="M0 0 C2 1 2 1 2 1 Z " fill="#000100" transform="translate(884,1232)"/>
<path d="M0 0 C2 1 2 1 2 1 Z " fill="#000100" transform="translate(394,1232)"/>
<path d="M0 0 C2 1 2 1 2 1 Z " fill="#000100" transform="translate(896,1227)"/>
<path d="M0 0 C2 1 2 1 2 1 Z " fill="#000100" transform="translate(372,1222)"/>
<path d="M0 0 C2 1 2 1 2 1 Z " fill="#000100" transform="translate(282,1172)"/>
<path d="" fill="#000100" transform="translate(0,0)"/>
<path d="" fill="#000100" transform="translate(0,0)"/>
<path d="" fill="#000100" transform="translate(0,0)"/>
<path d="" fill="#000100" transform="translate(0,0)"/>
<path d="" fill="#000100" transform="translate(0,0)"/>
<path d="" fill="#000100" transform="translate(0,0)"/>
<path d="" fill="#000100" transform="translate(0,0)"/>
<path d="" fill="#000100" transform="translate(0,0)"/>
<path d="" fill="#000100" transform="translate(0,0)"/>
<path d="" fill="#000100" transform="translate(0,0)"/>
<path d="" fill="#000100" transform="translate(0,0)"/>
<path d="" fill="#000100" transform="translate(0,0)"/>
<path d="" fill="#000100" transform="translate(0,0)"/>
<path d="" fill="#000100" transform="translate(0,0)"/>
<path d="" fill="#000100" transform="translate(0,0)"/>
<path d="" fill="#000100" transform="translate(0,0)"/>
<path d="" fill="#CCE0F2" transform="translate(0,0)"/>
<path d="" fill="#000100" transform="translate(0,0)"/>
<path d="" fill="#000100" transform="translate(0,0)"/>
<path d="" fill="#000100" transform="translate(0,0)"/>
<path d="" fill="#000100" transform="translate(0,0)"/>
<path d="" fill="#000100" transform="translate(0,0)"/>
<path d="" fill="#000100" transform="translate(0,0)"/>
<path d="" fill="#CCE0F2" transform="translate(0,0)"/>
<path d="" fill="#CCE0F2" transform="translate(0,0)"/>
<path d="" fill="#000100" transform="translate(0,0)"/>
<path d="" fill="#000100" transform="translate(0,0)"/>
<path d="" fill="#000100" transform="translate(0,0)"/>
<path d="" fill="#000100" transform="translate(0,0)"/>
<path d="" fill="#000100" transform="translate(0,0)"/>
<path d="" fill="#CCE0F2" transform="translate(0,0)"/>
<path d="" fill="#000100" transform="translate(0,0)"/>
<path d="" fill="#000100" transform="translate(0,0)"/>
<path d="" fill="#000100" transform="translate(0,0)"/>
<path d="" fill="#000100" transform="translate(0,0)"/>
<path d="" fill="#000100" transform="translate(0,0)"/>
<path d="" fill="#000100" transform="translate(0,0)"/>
<path d="" fill="#000100" transform="translate(0,0)"/>
<path d="" fill="#000100" transform="translate(0,0)"/>
<path d="" fill="#000100" transform="translate(0,0)"/>
<path d="" fill="#000100" transform="translate(0,0)"/>
<path d="" fill="#000100" transform="translate(0,0)"/>
<path d="" fill="#000100" transform="translate(0,0)"/>
<path d="" fill="#39B64A" transform="translate(0,0)"/>
<path d="" fill="#000100" transform="translate(0,0)"/>
<path d="" fill="#000100" transform="translate(0,0)"/>
<path d="" fill="#000100" transform="translate(0,0)"/>
<path d="" fill="#000100" transform="translate(0,0)"/>
<path d="" fill="#000100" transform="translate(0,0)"/>
<path d="" fill="#CCE0F2" transform="translate(0,0)"/>
<path d="" fill="#000100" transform="translate(0,0)"/>
<path d="" fill="#000100" transform="translate(0,0)"/>
<path d="" fill="#000100" transform="translate(0,0)"/>
<path d="" fill="#000100" transform="translate(0,0)"/>
<path d="" fill="#000100" transform="translate(0,0)"/>
<path d="" fill="#000100" transform="translate(0,0)"/>
<path d="" fill="#000100" transform="translate(0,0)"/>
<path d="" fill="#CCE0F2" transform="translate(0,0)"/>
<path d="" fill="#000100" transform="translate(0,0)"/>
<path d="" fill="#000100" transform="translate(0,0)"/>
<path d="" fill="#000100" transform="translate(0,0)"/>
<path d="" fill="#000100" transform="translate(0,0)"/>
<path d="" fill="#CCE0F2" transform="translate(0,0)"/>
<path d="" fill="#000100" transform="translate(0,0)"/>
<path d="" fill="#000100" transform="translate(0,0)"/>
<path d="" fill="#000100" transform="translate(0,0)"/>
<path d="" fill="#000100" transform="translate(0,0)"/>
<path d="" fill="#39B64A" transform="translate(0,0)"/>
<path d="" fill="#39B64A" transform="translate(0,0)"/>
<path d="" fill="#000100" transform="translate(0,0)"/>
<path d="" fill="#000100" transform="translate(0,0)"/>
<path d="" fill="#000100" transform="translate(0,0)"/>
<path d="" fill="#000100" transform="translate(0,0)"/>
<path d="" fill="#000100" transform="translate(0,0)"/>
<path d="" fill="#39B64A" transform="translate(0,0)"/>
<path d="" fill="#000100" transform="translate(0,0)"/>
<path d="" fill="#39B64A" transform="translate(0,0)"/>
<path d="" fill="#39B64A" transform="translate(0,0)"/>
<path d="" fill="#000100" transform="translate(0,0)"/>
<path d="" fill="#39B64A" transform="translate(0,0)"/>
<path d="" fill="#39B64A" transform="translate(0,0)"/>
<path d="" fill="#000100" transform="translate(0,0)"/>
<path d="" fill="#39B64A" transform="translate(0,0)"/>
<path d="" fill="#39B64A" transform="translate(0,0)"/>
<path d="" fill="#000100" transform="translate(0,0)"/>
<path d="" fill="#39B64A" transform="translate(0,0)"/>
<path d="" fill="#000100" transform="translate(0,0)"/>
<path d="" fill="#CCE0F2" transform="translate(0,0)"/>
<path d="" fill="#39B64A" transform="translate(0,0)"/>
<path d="" fill="#CCE0F2" transform="translate(0,0)"/>
<path d="" fill="#000100" transform="translate(0,0)"/>
<path d="" fill="#CCE0F2" transform="translate(0,0)"/>
<path d="" fill="#CCE0F2" transform="translate(0,0)"/>
<path d="" fill="#CCE0F2" transform="translate(0,0)"/>
<path d="" fill="#000100" transform="translate(0,0)"/>
<path d="" fill="#000100" transform="translate(0,0)"/>
<path d="" fill="#39B64A" transform="translate(0,0)"/>
<path d="" fill="#39B64A" transform="translate(0,0)"/>
<path d="" fill="#39B64A" transform="translate(0,0)"/>
<path d="" fill="#39B64A" transform="translate(0,0)"/>
<path d="" fill="#39B64A" transform="translate(0,0)"/>
<path d="" fill="#000100" transform="translate(0,0)"/>
</svg>
