<svg width="14" height="14" viewBox="0 0 14 14" fill="none" xmlns="http://www.w3.org/2000/svg">
<path d="M9.5918 9.24578L10.2005 11.3446L11.7957 13.0624C12.0114 12.9381 12.195 12.7577 12.3242 12.5339L13.8062 9.96757C13.9354 9.74461 13.9995 9.4952 13.9995 9.24578L11.7235 8.80469L9.5918 9.24578Z" fill="#EA4335"/>
<path d="M9.20281 0.939372C8.98708 0.815065 8.73926 0.746094 8.48102 0.746094H5.51769C5.26105 0.746094 5.01083 0.816668 4.7959 0.939372L5.43428 3.0895L6.99334 4.74479L6.99895 4.75602L8.56924 3.08067L9.20281 0.939372Z" fill="#188038"/>
<path d="M4.40691 9.24785L2.13489 8.72656L0 9.24785C0 9.49647 0.0641588 9.74508 0.192477 9.96884L1.67455 12.536C1.80367 12.7589 1.98732 12.9394 2.20306 13.0645L3.77415 11.4461L4.40691 9.24785Z" fill="#1967D2"/>
<path d="M11.7684 4.99475L9.73139 1.46601C9.60227 1.24225 9.41861 1.06181 9.20288 0.9375L6.99902 4.75415L9.59184 9.24527H13.9988C13.9988 8.99585 13.9346 8.74724 13.8055 8.52348L11.7684 4.99475Z" fill="#FBBC04"/>
<path d="M9.5936 9.24609H4.40796L2.2041 13.0627C2.41984 13.1871 2.66765 13.256 2.92589 13.256H11.0749C11.3331 13.256 11.5809 13.1871 11.7967 13.0627L9.5936 9.24609Z" fill="#4285F4"/>
<path d="M6.99973 4.75415L4.79668 0.9375C4.58094 1.06181 4.39809 1.24145 4.26897 1.4644L0.192477 8.52589C0.0641588 8.74884 0 8.99746 0 9.24527H4.40691L6.99973 4.75415Z" fill="#34A853"/>
</svg>
