<svg width="81" height="54" viewBox="0 0 81 54" fill="none" xmlns="http://www.w3.org/2000/svg">
<path d="M50 23.52V18.98C50 17.57 49.36 17 47.77 17H43.73C42.14 17 41.5 17.57 41.5 18.98V23.51C41.5 24.93 42.14 25.49 43.73 25.49H47.77C49.36 25.5 50 24.93 50 23.52Z" stroke="black" stroke-opacity="0.4" stroke-width="1.5" stroke-linecap="round" stroke-linejoin="round"/>
<path d="M50 34.77V30.73C50 29.14 49.36 28.5 47.77 28.5H43.73C42.14 28.5 41.5 29.14 41.5 30.73V34.77C41.5 36.36 42.14 37 43.73 37H47.77C49.36 37 50 36.36 50 34.77Z" stroke="black" stroke-opacity="0.4" stroke-width="1.5" stroke-linecap="round" stroke-linejoin="round"/>
<path d="M38.5 23.52V18.98C38.5 17.57 37.86 17 36.27 17H32.23C30.64 17 30 17.57 30 18.98V23.51C30 24.93 30.64 25.49 32.23 25.49H36.27C37.86 25.5 38.5 24.93 38.5 23.52Z" stroke="black" stroke-opacity="0.4" stroke-width="1.5" stroke-linecap="round" stroke-linejoin="round"/>
<path d="M38.5 34.77V30.73C38.5 29.14 37.86 28.5 36.27 28.5H32.23C30.64 28.5 30 29.14 30 30.73V34.77C30 36.36 30.64 37 32.23 37H36.27C37.86 37 38.5 36.36 38.5 34.77Z" stroke="black" stroke-opacity="0.4" stroke-width="1.5" stroke-linecap="round" stroke-linejoin="round"/>
</svg>
