<svg width="81" height="54" viewBox="0 0 81 54" fill="none" xmlns="http://www.w3.org/2000/svg">
<g opacity="0.4">
<path d="M47 28.3594H30C29.59 28.3594 29.25 28.0194 29.25 27.6094C29.25 27.1994 29.59 26.8594 30 26.8594H47C47.41 26.8594 47.75 27.1994 47.75 27.6094C47.75 28.0194 47.41 28.3594 47 28.3594Z" fill="black"/>
<path d="M43.22 36.7508H33.78C30.35 36.7508 29.25 35.6608 29.25 32.2708V25.2808C29.25 22.5908 29.86 21.0008 32.96 20.8208C33.22 20.8108 33.49 20.8008 33.78 20.8008H43.22C46.65 20.8008 47.75 21.8908 47.75 25.2808V32.4308C47.71 35.7008 46.61 36.7508 43.22 36.7508ZM33.78 22.3008C33.51 22.3008 33.26 22.3108 33.03 22.3208C31.24 22.4308 30.75 22.8108 30.75 25.2808V32.2708C30.75 34.8308 31.17 35.2508 33.78 35.2508H43.22C45.8 35.2508 46.22 34.8508 46.25 32.4208V25.2808C46.25 22.7208 45.83 22.3008 43.22 22.3008H33.78Z" fill="black"/>
<path d="M47 33.18C46.81 33.18 46.62 33.11 46.49 32.98C46.34 32.84 46.25 32.64 46.25 32.43V25.28C46.25 22.72 45.83 22.3 43.22 22.3H33.78C33.51 22.3 33.26 22.31 33.03 22.32C32.83 22.33 32.63 22.25 32.48 22.11C32.33 21.97 32.25 21.77 32.25 21.56C32.29 18.3 33.39 17.25 36.78 17.25H46.22C49.65 17.25 50.75 18.34 50.75 21.73V28.72C50.75 31.41 50.14 33 47.04 33.18C47.03 33.18 47.01 33.18 47 33.18ZM33.78 20.8H43.22C46.65 20.8 47.75 21.89 47.75 25.28V31.6C48.91 31.39 49.25 30.79 49.25 28.72V21.73C49.25 19.17 48.83 18.75 46.22 18.75H36.78C34.5 18.75 33.91 19.06 33.78 20.8Z" fill="black"/>
<path d="M34.9603 33.5586H33.2402C32.8302 33.5586 32.4902 33.2186 32.4902 32.8086C32.4902 32.3986 32.8302 32.0586 33.2402 32.0586H34.9603C35.3703 32.0586 35.7103 32.3986 35.7103 32.8086C35.7103 33.2186 35.3803 33.5586 34.9603 33.5586Z" fill="black"/>
<path d="M40.5494 33.5586H37.1094C36.6994 33.5586 36.3594 33.2186 36.3594 32.8086C36.3594 32.3986 36.6994 32.0586 37.1094 32.0586H40.5494C40.9594 32.0586 41.2994 32.3986 41.2994 32.8086C41.2994 33.2186 40.9694 33.5586 40.5494 33.5586Z" fill="black"/>
</g>
</svg>
