<svg width="81" height="54" viewBox="0 0 81 54" fill="none" xmlns="http://www.w3.org/2000/svg">
<g opacity="0.4">
<path d="M43.5008 19.0008L49.4508 19.8008L44.5508 24.7008L43.5008 19.0008ZM36.5008 35.0008L30.5508 34.2008L35.4508 29.3008L36.5008 35.0008ZM32.0008 23.5008L32.8008 17.5508L37.7008 22.4508L32.0008 23.5008Z" fill="black"/>
<path d="M32.65 25.6L30.55 26C30.5 26.35 30.5 26.65 30.5 27C30.5 29.3 31.3 31.5 32.8 33.2L34.3 31.9C33.15 30.55 32.5 28.8 32.5 27C32.5 26.55 32.55 26.05 32.65 25.6ZM40 17.5C37.3 17.5 34.9 18.65 33.15 20.45L34.55 21.85C35.95 20.4 37.85 19.5 40 19.5C40.45 19.5 40.95 19.55 41.4 19.65L41.75 17.7C41.2 17.55 40.6 17.5 40 17.5ZM47.35 28.4L49.45 28C49.5 27.65 49.5 27.35 49.5 27C49.5 24.8 48.75 22.65 47.35 20.95L45.8 22.2C46.9 23.55 47.5 25.25 47.5 26.95C47.5 27.45 47.45 27.95 47.35 28.4ZM45.45 32.15C44.05 33.6 42.15 34.5 40 34.5C39.55 34.5 39.05 34.45 38.6 34.35L38.25 36.3C38.85 36.4 39.45 36.45 40 36.45C42.7 36.45 45.1 35.3 46.85 33.5L45.45 32.15Z" fill="black"/>
<path d="M48.0008 30.5L47.2008 36.45L42.3008 31.55L48.0008 30.5Z" fill="black"/>
</g>
</svg>
