<svg width="81" height="54" viewBox="0 0 81 54" fill="none" xmlns="http://www.w3.org/2000/svg">
<path d="M40 30C41.6569 30 43 28.6569 43 27C43 25.3431 41.6569 24 40 24C38.3431 24 37 25.3431 37 27C37 28.6569 38.3431 30 40 30Z" stroke="black" stroke-opacity="0.4" stroke-width="1.5" stroke-miterlimit="10" stroke-linecap="round" stroke-linejoin="round"/>
<path d="M30 27.8814V26.1214C30 25.0814 30.85 24.2214 31.9 24.2214C33.71 24.2214 34.45 22.9414 33.54 21.3714C33.02 20.4714 33.33 19.3014 34.24 18.7814L35.97 17.7914C36.76 17.3214 37.78 17.6014 38.25 18.3914L38.36 18.5814C39.26 20.1514 40.74 20.1514 41.65 18.5814L41.76 18.3914C42.23 17.6014 43.25 17.3214 44.04 17.7914L45.77 18.7814C46.68 19.3014 46.99 20.4714 46.47 21.3714C45.56 22.9414 46.3 24.2214 48.11 24.2214C49.15 24.2214 50.01 25.0714 50.01 26.1214V27.8814C50.01 28.9214 49.16 29.7814 48.11 29.7814C46.3 29.7814 45.56 31.0614 46.47 32.6314C46.99 33.5414 46.68 34.7014 45.77 35.2214L44.04 36.2114C43.25 36.6814 42.23 36.4014 41.76 35.6114L41.65 35.4214C40.75 33.8514 39.27 33.8514 38.36 35.4214L38.25 35.6114C37.78 36.4014 36.76 36.6814 35.97 36.2114L34.24 35.2214C33.33 34.7014 33.02 33.5314 33.54 32.6314C34.45 31.0614 33.71 29.7814 31.9 29.7814C30.85 29.7814 30 28.9214 30 27.8814Z" stroke="black" stroke-opacity="0.4" stroke-width="1.5" stroke-miterlimit="10" stroke-linecap="round" stroke-linejoin="round"/>
</svg>
