<svg width="19" height="19" viewBox="0 0 19 19" fill="none" xmlns="http://www.w3.org/2000/svg">
<path d="M9.36914 2C5.23664 2 1.86914 5.3675 1.86914 9.5C1.86914 13.6325 5.23664 17 9.36914 17C13.5016 17 16.8691 13.6325 16.8691 9.5C16.8691 5.3675 13.5016 2 9.36914 2ZM8.80664 6.5C8.80664 6.1925 9.06164 5.9375 9.36914 5.9375C9.67664 5.9375 9.93164 6.1925 9.93164 6.5V10.25C9.93164 10.5575 9.67664 10.8125 9.36914 10.8125C9.06164 10.8125 8.80664 10.5575 8.80664 10.25V6.5ZM10.0591 12.785C10.0216 12.8825 9.96914 12.9575 9.90164 13.0325C9.82664 13.1 9.74414 13.1525 9.65414 13.19C9.56414 13.2275 9.46664 13.25 9.36914 13.25C9.27164 13.25 9.17414 13.2275 9.08414 13.19C8.99414 13.1525 8.91164 13.1 8.83664 13.0325C8.76914 12.9575 8.71664 12.8825 8.67914 12.785C8.64164 12.695 8.61914 12.5975 8.61914 12.5C8.61914 12.4025 8.64164 12.305 8.67914 12.215C8.71664 12.125 8.76914 12.0425 8.83664 11.9675C8.91164 11.9 8.99414 11.8475 9.08414 11.81C9.26414 11.735 9.47414 11.735 9.65414 11.81C9.74414 11.8475 9.82664 11.9 9.90164 11.9675C9.96914 12.0425 10.0216 12.125 10.0591 12.215C10.0966 12.305 10.1191 12.4025 10.1191 12.5C10.1191 12.5975 10.0966 12.695 10.0591 12.785Z" fill="#54577A"/>
</svg>
