<svg width="14" height="16" viewBox="0 0 14 16" fill="none" xmlns="http://www.w3.org/2000/svg">
<path d="M13.9158 0.09375C13.9579 0.09375 14 0.135833 14 0.177917V1.69295C14 1.73503 13.9579 1.77712 13.9158 1.77712H7.84168V14.22H13.9158C13.9579 14.22 13.986 14.2481 14 14.2761V14.3042V15.8192C14 15.8613 13.9719 15.8893 13.9439 15.9034H13.9158H0.098196C0.0561118 15.9034 0.0280548 15.8753 0.0140268 15.8473V15.8192V14.3042C0.0140268 14.2621 0.0420842 14.234 0.0701403 14.22H0.098196H6.17234V1.77712H0.098196C0.0561118 1.77712 0.0280548 1.74906 0.0140268 1.721V1.69295V0.177917C0.0140268 0.135833 0.0561118 0.09375 0.098196 0.09375H13.9158ZM4.20842 3.64285C4.2505 3.64285 4.27856 3.6709 4.29258 3.69896V3.72702V12.2701C4.29258 12.3122 4.26453 12.3402 4.23647 12.3543H4.20842H0.084167C0.0420829 12.3543 0.0140281 12.3262 0 12.2982V12.2701V10.7551C0 10.713 0.0280553 10.6849 0.0561114 10.6709H0.084167H2.60922V5.32621H0.084167C0.0420829 5.32621 0.0140281 5.29816 0 5.2701V5.24205V3.72702C0 3.68493 0.0280553 3.65687 0.0561114 3.64285H0.084167H4.20842ZM13.9158 3.64285C13.9579 3.64285 13.986 3.6709 14 3.69896V3.72702V5.24205C14 5.28413 13.9719 5.31219 13.9439 5.32621H13.9158H11.3908V10.6709H13.9158C13.9579 10.6709 13.986 10.699 14 10.727V10.7551V12.2701C14 12.3122 13.9719 12.3402 13.9439 12.3543H13.9158H9.79158C9.7495 12.3543 9.72144 12.3262 9.70741 12.2982V12.2701V3.72702C9.70741 3.68493 9.73547 3.65687 9.76353 3.64285H9.79158H13.9158Z" fill="#00CA88"/>
</svg>
