<svg width="81" height="80" viewBox="0 0 81 80" fill="none" xmlns="http://www.w3.org/2000/svg">
<path d="M39.9952 52.5391H35.8672L40.0672 60.3511L44.1232 52.5391H39.9952Z" fill="#333793"/>
<path d="M24.9196 40.0703C24.1009 40.0698 23.29 40.2306 22.5335 40.5435C21.7769 40.8565 21.0894 41.3155 20.5103 41.8942C19.9312 42.473 19.4718 43.1601 19.1584 43.9165C18.8449 44.6729 18.6836 45.4836 18.6836 46.3023H22.3596C22.3596 45.5417 22.6618 44.8122 23.1996 44.2743C23.7375 43.7365 24.467 43.4343 25.2276 43.4343C25.9882 43.4343 26.7177 43.7365 27.2556 44.2743C27.7934 44.8122 28.0956 45.5417 28.0956 46.3023H31.1516C31.1521 45.4838 30.9913 44.6731 30.6783 43.9168C30.3653 43.1605 29.9063 42.4732 29.3275 41.8945C28.7487 41.3157 28.0614 40.8566 27.3051 40.5436C26.5488 40.2306 25.7381 40.0698 24.9196 40.0703Z" fill="#333793"/>
<path d="M54.2672 40.0703C52.6143 40.0703 51.0292 40.7269 49.8605 41.8956C48.6917 43.0644 48.0352 44.6495 48.0352 46.3023H51.7072C51.7349 45.5597 52.0494 44.8567 52.5846 44.3411C53.1198 43.8255 53.834 43.5375 54.5772 43.5375C55.3203 43.5375 56.0345 43.8255 56.5697 44.3411C57.1049 44.8567 57.4194 45.5597 57.4472 46.3023H60.5032C60.5032 45.4836 60.3418 44.6729 60.0284 43.9165C59.715 43.1601 59.2556 42.473 58.6764 41.8942C58.0973 41.3155 57.4098 40.8565 56.6533 40.5435C55.8967 40.2306 55.0859 40.0698 54.2672 40.0703Z" fill="#333793"/>
<path d="M39.2969 44.7687C39.2969 36.4727 33.2169 28.4367 24.9209 28.4367C22.7621 28.4328 20.6278 28.8954 18.6644 29.7929C16.7009 30.6904 14.9546 32.0016 13.5449 33.6367C16.0849 25.6367 26.9849 19.6367 40.0169 19.6367C53.2169 19.6367 64.1249 25.6887 66.4969 33.8207L66.4529 33.8527C65.079 32.1497 63.3395 30.7776 61.3634 29.838C59.3872 28.8984 57.225 28.4154 55.0369 28.4247C46.7409 28.4247 40.6889 36.4607 40.6889 44.7567" fill="#333793"/>
</svg>
