<svg width="25" height="25" viewBox="0 0 25 25" fill="none" xmlns="http://www.w3.org/2000/svg">
<path fill-rule="evenodd" clip-rule="evenodd" d="M3 0C1.34315 0 0 1.34315 0 3V22C0 23.6569 1.34315 25 3 25H22C23.6569 25 25 23.6569 25 22V3C25 1.34315 23.6569 0 22 0H3ZM4.59386 15.7708C4.69536 15.8403 4.86347 15.875 5.09819 15.875C5.33291 15.875 5.50102 15.8403 5.60252 15.7708C5.70402 15.7013 5.76746 15.6128 5.79283 15.5054C5.81821 15.3917 5.83089 15.2748 5.83089 15.1548V13.9133H7.0489C7.31534 13.9133 7.58495 13.8659 7.85773 13.7712C8.13051 13.6701 8.38109 13.5248 8.60947 13.3352C8.84418 13.1394 9.03133 12.8962 9.17089 12.6055C9.3168 12.3149 9.38975 11.9769 9.38975 11.5915C9.38975 11.1998 9.3168 10.8587 9.17089 10.5681C9.03133 10.2774 8.84418 10.0342 8.60947 9.83835C8.38109 9.63618 8.13051 9.48771 7.85773 9.39294C7.59129 9.29817 7.32485 9.25079 7.05841 9.25079H5.1077C4.87299 9.25079 4.70487 9.28554 4.60338 9.35503C4.50188 9.42453 4.43844 9.51614 4.41306 9.62986C4.38769 9.73726 4.375 9.85098 4.375 9.97102V15.1453C4.375 15.2653 4.38769 15.3822 4.41306 15.4959C4.43844 15.6096 4.4987 15.7013 4.59386 15.7708ZM7.05841 12.4729H5.83089V10.6912H7.0489C7.22652 10.6912 7.38194 10.7292 7.51517 10.805C7.65472 10.8808 7.76257 10.985 7.8387 11.1177C7.91483 11.2504 7.95289 11.4052 7.95289 11.5821C7.95289 11.7905 7.9053 11.9611 7.81015 12.0938C7.72134 12.2265 7.60715 12.3244 7.46759 12.3876C7.33437 12.4444 7.19798 12.4729 7.05841 12.4729ZM10.2336 15.7708C10.3351 15.8403 10.4969 15.875 10.7189 15.875H12.4127C12.8821 15.875 13.3135 15.7897 13.7068 15.6191C14.1065 15.4485 14.4554 15.2148 14.7535 14.9179C15.0517 14.6146 15.2832 14.2608 15.4482 13.8565C15.6131 13.4458 15.6956 13.0036 15.6956 12.5297C15.6956 12.0622 15.6131 11.6294 15.4482 11.2314C15.2832 10.8334 15.0517 10.4859 14.7535 10.189C14.4554 9.89204 14.1096 9.66145 13.7163 9.49718C13.323 9.33292 12.898 9.25079 12.4412 9.25079H10.7284C10.4937 9.24447 10.3256 9.27606 10.2241 9.34556C10.1226 9.41505 10.0591 9.50666 10.0338 9.62038C10.0084 9.72778 9.9957 9.84151 9.9957 9.96154V15.1453C9.9957 15.2717 10.0116 15.3917 10.0433 15.5054C10.075 15.6128 10.1384 15.7013 10.2336 15.7708ZM12.4412 14.4251H11.4421V10.6912H12.4317C12.7806 10.6912 13.0915 10.7734 13.3643 10.9376C13.637 11.0956 13.8527 11.3167 14.0113 11.601C14.1699 11.8853 14.2492 12.2075 14.2492 12.5676C14.2492 12.9277 14.1699 13.2468 14.0113 13.5248C13.8527 13.8028 13.637 14.0239 13.3643 14.1881C13.0915 14.3461 12.7838 14.4251 12.4412 14.4251ZM16.666 15.7802C16.7675 15.8434 16.9325 15.875 17.1609 15.875C17.4019 15.875 17.57 15.8434 17.6652 15.7802C17.7667 15.7107 17.8301 15.6223 17.8555 15.5149C17.8809 15.4012 17.8936 15.2843 17.8936 15.1642V13.1647H19.8348C19.968 13.1647 20.0822 13.1552 20.1773 13.1362C20.2788 13.1173 20.3581 13.0667 20.4152 12.9846C20.4723 12.8962 20.5009 12.7508 20.5009 12.5487C20.5009 12.3402 20.4723 12.1917 20.4152 12.1033C20.3581 12.0148 20.2788 11.9611 20.1773 11.9422C20.0822 11.9232 19.9712 11.9137 19.8443 11.9137H17.8936V10.6912H19.7673C19.8942 10.6912 20.0115 10.6818 20.1194 10.6628C20.2336 10.6375 20.3255 10.5744 20.3953 10.4733C20.4651 10.3722 20.5 10.2079 20.5 9.9805C20.5 9.74042 20.4651 9.56984 20.3953 9.46876C20.3319 9.36767 20.2463 9.30765 20.1384 9.2887C20.0306 9.26343 19.9132 9.25079 19.7863 9.25079H17.1894C16.9103 9.25079 16.7168 9.30133 16.609 9.40242C16.5011 9.5035 16.4472 9.69304 16.4472 9.97102V15.1548C16.4472 15.2748 16.4567 15.3917 16.4757 15.5054C16.5011 15.6191 16.5646 15.7107 16.666 15.7802Z" fill="#EA3434"/>
</svg>
