<svg width="25" height="25" viewBox="0 0 25 25" fill="none" xmlns="http://www.w3.org/2000/svg">
<path fill-rule="evenodd" clip-rule="evenodd" d="M3 0C1.34315 0 0 1.34315 0 3V22C0 23.6569 1.34315 25 3 25H22C23.6569 25 25 23.6569 25 22V3C25 1.34315 23.6569 0 22 0H3ZM9.35312 17.2696C9.49063 17.3612 9.67854 17.4071 9.91687 17.4071C10.1735 17.4071 10.3706 17.3567 10.5081 17.2558C10.6548 17.1458 10.7602 17.0267 10.8244 16.8983C10.8885 16.77 10.9252 16.6829 10.9344 16.6371L12.5156 11.5083L14.0969 16.6371C14.1152 16.6829 14.1519 16.77 14.2069 16.8983C14.271 17.0175 14.3765 17.1321 14.5231 17.2421C14.6698 17.3521 14.8669 17.4071 15.1144 17.4071C15.371 17.4071 15.5635 17.3612 15.6919 17.2696C15.8294 17.1779 15.9256 17.0771 15.9806 16.9671C16.0448 16.8479 16.086 16.7608 16.1044 16.7058L18.6894 9.21208C18.7628 8.95542 18.7948 8.74917 18.7856 8.59333C18.7856 8.42834 18.7306 8.29083 18.6206 8.18083C18.5106 8.07083 18.3181 7.96542 18.0431 7.86459C17.7865 7.77292 17.571 7.73625 17.3969 7.75459C17.2319 7.77292 17.0944 7.84625 16.9844 7.97459C16.8835 8.09375 16.7919 8.28167 16.7094 8.53834L15.0044 13.6533L13.5469 8.57958C13.5194 8.51542 13.4781 8.42375 13.4231 8.30458C13.3681 8.18542 13.2673 8.07542 13.1206 7.97459C12.9831 7.87375 12.7723 7.82333 12.4881 7.82333C12.2406 7.82333 12.0481 7.86916 11.9106 7.96083C11.7731 8.0525 11.6723 8.15792 11.6081 8.27708C11.5531 8.39625 11.5119 8.50166 11.4844 8.59333L10.0406 13.6258L8.32188 8.52458C8.23938 8.26791 8.14312 8.08 8.03313 7.96083C7.93229 7.84167 7.79937 7.7775 7.63438 7.76833C7.47854 7.75917 7.27229 7.79583 7.01562 7.87833C6.62146 8.00667 6.38313 8.16708 6.30062 8.35958C6.21812 8.54292 6.23646 8.82709 6.35563 9.21208L8.94062 16.7058C8.95896 16.7517 8.99562 16.8342 9.05062 16.9533C9.11479 17.0725 9.21563 17.1779 9.35312 17.2696Z" fill="#2684FF"/>
</svg>
