<svg width="25" height="25" viewBox="0 0 25 25" fill="none" xmlns="http://www.w3.org/2000/svg">
<path fill-rule="evenodd" clip-rule="evenodd" d="M3 0C1.34315 0 0 1.34315 0 3V22C0 23.6569 1.34315 25 3 25H22C23.6569 25 25 23.6569 25 22V3C25 1.34315 23.6569 0 22 0H3ZM15.9075 17.3666C16.0633 17.3116 16.2467 17.1924 16.4575 17.0091C16.7692 16.7433 16.9204 16.5049 16.9113 16.2941C16.9113 16.0833 16.7829 15.8358 16.5262 15.5516L13.8804 12.4619L16.5262 9.37786C16.7829 9.10286 16.9113 8.85535 16.9113 8.63536C16.9204 8.41536 16.7692 8.17244 16.4575 7.90661C16.2558 7.71411 16.0771 7.59035 15.9212 7.53535C15.7654 7.48035 15.6142 7.48952 15.4675 7.56286C15.3208 7.63619 15.1604 7.77827 14.9862 7.98911L12.5181 10.8712L10.05 7.98911C9.87584 7.77827 9.71541 7.63619 9.56875 7.56286C9.42209 7.48952 9.27084 7.48035 9.115 7.53535C8.95917 7.59035 8.78042 7.71411 8.57875 7.90661C8.27625 8.17244 8.125 8.41536 8.125 8.63536C8.125 8.85535 8.25333 9.10286 8.51 9.37786L11.1559 12.4619L8.51 15.5516C8.25333 15.8358 8.125 16.0833 8.125 16.2941C8.125 16.5049 8.27625 16.7433 8.57875 17.0091C8.78958 17.1924 8.97292 17.3116 9.12875 17.3666C9.28459 17.4216 9.43584 17.4124 9.5825 17.3391C9.72916 17.2658 9.885 17.1283 10.05 16.9266L12.5181 14.0498L14.9862 16.9266C15.1604 17.1283 15.3162 17.2658 15.4538 17.3391C15.6004 17.4124 15.7517 17.4216 15.9075 17.3666Z" fill="#01AC49"/>
</svg>
