<svg width="20" height="21" viewBox="0 0 20 21" fill="none" xmlns="http://www.w3.org/2000/svg">
<g clip-path="url(#clip0_135_87325)">
<path d="M8.33398 15.5013C8.33398 16.418 9.08398 17.168 10.0007 17.168C10.9173 17.168 11.6673 16.418 11.6673 15.5013C11.6673 14.5846 10.9173 13.8346 10.0007 13.8346C9.08398 13.8346 8.33398 14.5846 8.33398 15.5013ZM8.33398 5.5013C8.33398 6.41797 9.08398 7.16797 10.0007 7.16797C10.9173 7.16797 11.6673 6.41797 11.6673 5.5013C11.6673 4.58464 10.9173 3.83464 10.0007 3.83464C9.08398 3.83464 8.33398 4.58464 8.33398 5.5013ZM8.33398 10.5013C8.33398 11.418 9.08398 12.168 10.0007 12.168C10.9173 12.168 11.6673 11.418 11.6673 10.5013C11.6673 9.58464 10.9173 8.83464 10.0007 8.83464C9.08398 8.83464 8.33398 9.58464 8.33398 10.5013Z" fill="#9E9E9E"/>
</g>
<defs>
<clipPath id="clip0_135_87325">
<rect width="20" height="20" fill="white" transform="matrix(0 -1 1 0 0 20.5)"/>
</clipPath>
</defs>
</svg>
