<svg width="25" height="24" viewBox="0 0 25 24" fill="none" xmlns="http://www.w3.org/2000/svg">
<path d="M11.52 19.5H8C7.38 19.5 6.83 19.48 6.34 19.41C3.71 19.12 3 17.88 3 14.5V9.5C3 6.12 3.71 4.88 6.34 4.59C6.83 4.52 7.38 4.5 8 4.5H11.46" stroke="#292D32" stroke-width="1.5" stroke-linecap="round" stroke-linejoin="round"/>
<path d="M15.5234 4.5H17.0034C17.6234 4.5 18.1734 4.52 18.6634 4.59C21.2934 4.88 22.0034 6.12 22.0034 9.5V14.5C22.0034 17.88 21.2934 19.12 18.6634 19.41C18.1734 19.48 17.6234 19.5 17.0034 19.5H15.5234" stroke="#292D32" stroke-width="1.5" stroke-linecap="round" stroke-linejoin="round"/>
<path d="M15.5 2V22" stroke="#292D32" stroke-width="1.5" stroke-linecap="round" stroke-linejoin="round"/>
<path d="M11.5961 12H11.6051" stroke="#292D32" stroke-width="2" stroke-linecap="round" stroke-linejoin="round"/>
<path d="M7.59607 12H7.60505" stroke="#292D32" stroke-width="2" stroke-linecap="round" stroke-linejoin="round"/>
</svg>
