<svg width="16" height="17" viewBox="0 0 16 17" fill="none" xmlns="http://www.w3.org/2000/svg">
<path d="M6.10671 7.74536C6.04004 7.7387 5.96004 7.7387 5.88671 7.74536C4.30004 7.69203 3.04004 6.39203 3.04004 4.79203C3.04004 3.1587 4.36004 1.83203 6.00004 1.83203C7.63337 1.83203 8.96004 3.1587 8.96004 4.79203C8.95337 6.39203 7.69337 7.69203 6.10671 7.74536Z" stroke="#54577A" stroke-width="1.5" stroke-linecap="round" stroke-linejoin="round"/>
<path d="M10.9402 3.16797C12.2335 3.16797 13.2735 4.21464 13.2735 5.5013C13.2735 6.7613 12.2735 7.78797 11.0268 7.83464C10.9735 7.82797 10.9135 7.82797 10.8535 7.83464" stroke="#54577A" stroke-width="1.5" stroke-linecap="round" stroke-linejoin="round"/>
<path d="M2.77348 10.208C1.16014 11.288 1.16014 13.048 2.77348 14.1213C4.60681 15.348 7.61348 15.348 9.44681 14.1213C11.0601 13.0413 11.0601 11.2813 9.44681 10.208C7.62014 8.98797 4.61348 8.98797 2.77348 10.208Z" stroke="#54577A" stroke-width="1.5" stroke-linecap="round" stroke-linejoin="round"/>
<path d="M12.2266 13.832C12.7066 13.732 13.1599 13.5387 13.5332 13.252C14.5732 12.472 14.5732 11.1854 13.5332 10.4054C13.1666 10.1254 12.7199 9.9387 12.2466 9.83203" stroke="#54577A" stroke-width="1.5" stroke-linecap="round" stroke-linejoin="round"/>
</svg>
