<svg width="188" height="17" viewBox="0 0 188 17" fill="none" xmlns="http://www.w3.org/2000/svg">
<path d="M141.153 2.67375L142.327 5.02042C142.487 5.34708 142.913 5.66042 143.273 5.72042L145.4 6.07375C146.76 6.30042 147.08 7.28708 146.1 8.26042L144.447 9.91375C144.167 10.1938 144.013 10.7338 144.1 11.1204L144.573 13.1671C144.947 14.7871 144.087 15.4138 142.653 14.5671L140.66 13.3871C140.3 13.1738 139.707 13.1738 139.34 13.3871L137.347 14.5671C135.92 15.4138 135.053 14.7804 135.427 13.1671L135.9 11.1204C135.987 10.7338 135.833 10.1938 135.553 9.91375L133.9 8.26042C132.927 7.28708 133.24 6.30042 134.6 6.07375L136.727 5.72042C137.08 5.66042 137.507 5.34708 137.667 5.02042L138.84 2.67375C139.48 1.40042 140.52 1.40042 141.153 2.67375Z" fill="#292D32"/>
<path d="M161.153 2.67375L162.327 5.02042C162.487 5.34708 162.913 5.66042 163.273 5.72042L165.4 6.07375C166.76 6.30042 167.08 7.28708 166.1 8.26042L164.447 9.91375C164.167 10.1937 164.013 10.7338 164.1 11.1204L164.573 13.1671C164.947 14.7871 164.087 15.4138 162.653 14.5671L160.66 13.3871C160.3 13.1738 159.707 13.1738 159.34 13.3871L157.347 14.5671C155.92 15.4138 155.053 14.7804 155.427 13.1671L155.9 11.1204C155.987 10.7338 155.833 10.1937 155.553 9.91375L153.9 8.26042C152.927 7.28708 153.24 6.30042 154.6 6.07375L156.727 5.72042C157.08 5.66042 157.507 5.34708 157.667 5.02042L158.84 2.67375C159.48 1.40042 160.52 1.40042 161.153 2.67375Z" stroke="#54577A" stroke-width="1.5" stroke-linecap="round" stroke-linejoin="round"/>
<path d="M181.153 2.67375L182.327 5.02042C182.487 5.34708 182.913 5.66042 183.273 5.72042L185.4 6.07375C186.76 6.30042 187.08 7.28708 186.1 8.26042L184.447 9.91375C184.167 10.1937 184.013 10.7338 184.1 11.1204L184.573 13.1671C184.947 14.7871 184.087 15.4138 182.653 14.5671L180.66 13.3871C180.3 13.1738 179.707 13.1738 179.34 13.3871L177.347 14.5671C175.92 15.4138 175.053 14.7804 175.427 13.1671L175.9 11.1204C175.987 10.7338 175.833 10.1937 175.553 9.91375L173.9 8.26042C172.927 7.28708 173.24 6.30042 174.6 6.07375L176.727 5.72042C177.08 5.66042 177.507 5.34708 177.667 5.02042L178.84 2.67375C179.48 1.40042 180.52 1.40042 181.153 2.67375Z" stroke="#54577A" stroke-width="1.5" stroke-linecap="round" stroke-linejoin="round"/>
</svg>
