<svg width="16" height="16" viewBox="0 0 16 16" fill="none" xmlns="http://www.w3.org/2000/svg">
<path fill-rule="evenodd" clip-rule="evenodd" d="M1.77987 11.7316C2.21831 11.7304 2.63842 11.5557 2.94834 11.2455C3.25825 10.9354 3.43273 10.5152 3.43362 10.0767V8.423H1.77987C1.34164 8.42389 0.92157 8.59822 0.611479 8.90789C0.301387 9.21756 0.126486 9.63739 0.125 10.0756C0.126125 10.988 0.866375 11.7282 1.77875 11.7294L1.77987 11.7316ZM5.92212 8.42188C5.48369 8.42306 5.06358 8.59783 4.75366 8.90796C4.44375 9.21808 4.26927 9.63832 4.26837 10.0767V14.2201C4.27062 15.1325 5.01087 15.8716 5.92212 15.8739C6.36036 15.8727 6.78031 15.6981 7.09019 15.3882C7.40007 15.0783 7.57469 14.6584 7.57587 14.2201V10.0756C7.57469 9.63739 7.40007 9.21744 7.09019 8.90756C6.78031 8.59768 6.36036 8.42306 5.92212 8.42188Z" fill="#E01E5A"/>
<path fill-rule="evenodd" clip-rule="evenodd" d="M4.26838 1.77987C4.2695 2.69225 5.00975 3.4325 5.92213 3.43362H7.57588V1.77987C7.57499 1.34164 7.40066 0.92157 7.09099 0.611479C6.78132 0.301387 6.36149 0.126486 5.92325 0.125C5.48501 0.126188 5.06507 0.300803 4.75518 0.610684C4.4453 0.920565 4.27069 1.34051 4.2695 1.77875L4.26838 1.77987ZM7.57588 5.92212C7.57469 5.48389 7.40007 5.06394 7.09019 4.75406C6.78031 4.44418 6.36036 4.26956 5.92213 4.26837H1.77875C1.34051 4.26956 0.920565 4.44418 0.610684 4.75406C0.300803 5.06394 0.126188 5.48389 0.125 5.92212C0.12725 6.83562 0.8675 7.57475 1.77875 7.57587H5.92325C6.36149 7.57469 6.78144 7.40007 7.09132 7.09019C7.4012 6.78031 7.57469 6.36036 7.57588 5.92212Z" fill="#36C5F0"/>
<path fill-rule="evenodd" clip-rule="evenodd" d="M10.0784 7.577C10.5166 7.57581 10.9366 7.4012 11.2465 7.09132C11.5564 6.78144 11.731 6.36149 11.7322 5.92325V1.77875C11.731 1.34071 11.5565 0.920929 11.2469 0.61108C10.9372 0.301231 10.5176 0.126484 10.0795 0.125C9.64129 0.126188 9.22135 0.300803 8.91146 0.610684C8.60158 0.920565 8.42697 1.34051 8.42578 1.77875V5.92325C8.42803 6.8345 9.16603 7.57475 10.0784 7.577ZM14.2207 4.26838C13.7824 4.26956 13.3625 4.44418 13.0526 4.75406C12.7427 5.06394 12.5681 5.48389 12.5669 5.92213V7.57588H14.2207C14.6589 7.57499 15.079 7.40066 15.3891 7.09099C15.6991 6.78132 15.874 6.36149 15.8755 5.92325C15.8743 5.48501 15.6997 5.06507 15.3898 4.75518C15.08 4.4453 14.66 4.27069 14.2218 4.2695L14.2207 4.26838Z" fill="#2EB67D"/>
<path fill-rule="evenodd" clip-rule="evenodd" d="M8.42383 10.0784C8.42608 10.9908 9.1652 11.731 10.0776 11.7322H14.221C14.659 11.731 15.0788 11.5565 15.3886 11.2469C15.6985 10.9372 15.8732 10.5176 15.8747 10.0795C15.8735 9.64129 15.6989 9.22135 15.389 8.91146C15.0791 8.60158 14.6592 8.42697 14.221 8.42578H10.0776C9.63934 8.42697 9.21939 8.60158 8.90951 8.91146C8.59963 9.22135 8.42502 9.64017 8.42383 10.0784ZM11.7313 14.2207C11.7301 13.7824 11.5555 13.3625 11.2456 13.0526C10.9358 12.7427 10.5158 12.5681 10.0776 12.5669H8.42383V14.2207C8.42608 15.1342 9.1652 15.8733 10.0776 15.8744C10.5158 15.8732 10.9358 15.6986 11.2456 15.3887C11.5555 15.0788 11.7301 14.6589 11.7313 14.2207Z" fill="#ECB22E"/>
</svg>
