<svg width="19" height="20" viewBox="0 0 19 20" fill="none" xmlns="http://www.w3.org/2000/svg">
<path d="M9.49967 2.08203C5.13759 2.08203 1.58301 5.63661 1.58301 9.9987C1.58301 14.3608 5.13759 17.9154 9.49967 17.9154C13.8618 17.9154 17.4163 14.3608 17.4163 9.9987C17.4163 5.63661 13.8618 2.08203 9.49967 2.08203ZM13.2838 8.17786L8.79509 12.6666C8.68426 12.7774 8.53384 12.8408 8.37551 12.8408C8.21717 12.8408 8.06676 12.7774 7.95592 12.6666L5.71551 10.4262C5.48592 10.1966 5.48592 9.81661 5.71551 9.58703C5.94509 9.35745 6.32509 9.35745 6.55467 9.58703L8.37551 11.4079L12.4447 7.3387C12.6743 7.10911 13.0543 7.10911 13.2838 7.3387C13.5134 7.56828 13.5134 7.94036 13.2838 8.17786Z" fill="white"/>
</svg>
