<svg width="14" height="4" viewBox="0 0 14 4" fill="none" xmlns="http://www.w3.org/2000/svg">
<path d="M2.00065 0.332031C1.08398 0.332031 0.333984 1.08203 0.333984 1.9987C0.333984 2.91536 1.08398 3.66537 2.00065 3.66537C2.91732 3.66537 3.66732 2.91536 3.66732 1.9987C3.66732 1.08203 2.91732 0.332031 2.00065 0.332031ZM12.0007 0.332031C11.084 0.332031 10.334 1.08203 10.334 1.9987C10.334 2.91536 11.084 3.66537 12.0007 3.66537C12.9173 3.66537 13.6673 2.91536 13.6673 1.9987C13.6673 1.08203 12.9173 0.332031 12.0007 0.332031ZM7.00065 0.332031C6.08398 0.332031 5.33398 1.08203 5.33398 1.9987C5.33398 2.91536 6.08398 3.66537 7.00065 3.66537C7.91732 3.66537 8.66732 2.91536 8.66732 1.9987C8.66732 1.08203 7.91732 0.332031 7.00065 0.332031Z" fill="#9E9E9E"/>
</svg>
