<svg width="24" height="24" viewBox="0 0 24 24" fill="none" xmlns="http://www.w3.org/2000/svg">
<path d="M12 22.75C6.07 22.75 1.25 17.93 1.25 12C1.25 6.07 6.07 1.25 12 1.25C17.93 1.25 22.75 6.07 22.75 12C22.75 17.93 17.93 22.75 12 22.75ZM12 2.75C6.9 2.75 2.75 6.9 2.75 12C2.75 17.1 6.9 21.25 12 21.25C17.1 21.25 21.25 17.1 21.25 12C21.25 6.9 17.1 2.75 12 2.75Z" fill="#292D32"/>
<path d="M10.5814 15.5816C10.3814 15.5816 10.1914 15.5016 10.0514 15.3616L7.22141 12.5316C6.93141 12.2416 6.93141 11.7616 7.22141 11.4716C7.51141 11.1816 7.99141 11.1816 8.28141 11.4716L10.5814 13.7716L15.7214 8.63156C16.0114 8.34156 16.4914 8.34156 16.7814 8.63156C17.0714 8.92156 17.0714 9.40156 16.7814 9.69156L11.1114 15.3616C10.9714 15.5016 10.7814 15.5816 10.5814 15.5816Z" fill="#292D32"/>
</svg>
