<svg width="17" height="16" viewBox="0 0 17 16" fill="none" xmlns="http://www.w3.org/2000/svg">
<path d="M8.50016 0.0820312C4.13808 0.0820312 0.583496 3.63661 0.583496 7.9987C0.583496 12.3608 4.13808 15.9154 8.50016 15.9154C12.8622 15.9154 16.4168 12.3608 16.4168 7.9987C16.4168 3.63661 12.8622 0.0820312 8.50016 0.0820312ZM12.2843 6.17786L7.79558 10.6666C7.68475 10.7774 7.53433 10.8408 7.376 10.8408C7.21766 10.8408 7.06725 10.7774 6.95641 10.6666L4.716 8.4262C4.48641 8.19661 4.48641 7.81661 4.716 7.58703C4.94558 7.35745 5.32558 7.35745 5.55516 7.58703L7.376 9.40786L11.4452 5.3387C11.6747 5.10911 12.0547 5.10911 12.2843 5.3387C12.5139 5.56828 12.5139 5.94036 12.2843 6.17786Z" fill="white"/>
</svg>
