<svg width="25" height="25" viewBox="0 0 25 25" fill="none" xmlns="http://www.w3.org/2000/svg">
<path fill-rule="evenodd" clip-rule="evenodd" d="M3 0C1.34314 0 0 1.34315 0 3V22C0 23.6569 1.34314 25 3 25H22C23.6569 25 25 23.6569 25 22V3C25 1.34315 23.6569 0 22 0H3ZM11.853 14.225C11.9905 14.3075 12.2151 14.3487 12.5267 14.3487C12.8384 14.3487 13.063 14.3121 13.2005 14.2387C13.338 14.1654 13.425 14.0646 13.4617 13.9362C13.4984 13.8079 13.5167 13.6704 13.5167 13.5238V13.1238C13.6014 13.0967 13.7023 13.0605 13.8192 13.015C13.9842 12.9417 14.163 12.8454 14.3555 12.7262C14.5571 12.5979 14.7451 12.4375 14.9192 12.245C15.0934 12.0433 15.2355 11.8004 15.3455 11.5163C15.4555 11.2321 15.5105 10.9021 15.5105 10.5263C15.5105 9.96709 15.3776 9.47209 15.1117 9.04125C14.855 8.61042 14.4976 8.26667 14.0392 8.01C13.5809 7.75333 13.0538 7.625 12.458 7.625C12.0363 7.625 11.6696 7.68 11.358 7.79C11.0463 7.9 10.7805 8.04208 10.5605 8.21625C10.3405 8.38125 10.1617 8.55542 10.0242 8.73875C9.89587 8.91291 9.79504 9.07791 9.72171 9.23375C9.64838 9.38041 9.60254 9.49041 9.58423 9.56375C9.52005 9.78375 9.49255 9.9625 9.50171 10.1C9.51089 10.2375 9.57504 10.3567 9.69421 10.4575C9.81339 10.5492 10.0013 10.6454 10.258 10.7463C10.4963 10.8379 10.6888 10.8746 10.8355 10.8562C10.9821 10.8288 11.1013 10.7508 11.193 10.6225C11.2938 10.4942 11.3809 10.32 11.4542 10.1C11.5001 9.99916 11.5642 9.9075 11.6467 9.825C11.7292 9.7425 11.8392 9.67375 11.9767 9.61875C12.1142 9.56375 12.2746 9.53625 12.458 9.53625C12.8521 9.53625 13.1455 9.62334 13.338 9.7975C13.5305 9.9625 13.6267 10.2192 13.6267 10.5675C13.6267 10.8058 13.5763 10.9938 13.4755 11.1312C13.3746 11.2688 13.2463 11.3833 13.0905 11.475C12.9346 11.5575 12.7696 11.6354 12.5955 11.7087C12.4213 11.7821 12.2563 11.8692 12.1005 11.97C11.9446 12.0617 11.8163 12.1854 11.7155 12.3412C11.6146 12.4879 11.5642 12.6896 11.5642 12.9463V13.4413C11.5642 13.5971 11.578 13.7438 11.6055 13.8812C11.6421 14.0188 11.7246 14.1333 11.853 14.225ZM11.6055 17.2225C11.7521 17.3967 12.05 17.4837 12.4992 17.4837C12.8751 17.4837 13.1409 17.4287 13.2967 17.3187C13.4617 17.1996 13.558 17.0575 13.5855 16.8925C13.6221 16.7183 13.6405 16.5442 13.6405 16.37C13.6405 15.9575 13.5671 15.6687 13.4205 15.5038C13.283 15.3296 12.9805 15.2425 12.513 15.2425C12.1371 15.2425 11.8713 15.2975 11.7155 15.4075C11.5596 15.5175 11.4634 15.6596 11.4267 15.8337C11.3992 16.0079 11.3855 16.1821 11.3855 16.3562C11.3855 16.7596 11.4588 17.0483 11.6055 17.2225Z" fill="#BCC0D1"/>
</svg>
