<svg width="19" height="20" viewBox="0 0 19 20" fill="none" xmlns="http://www.w3.org/2000/svg">
<path d="M9.49935 9.9987C11.6855 9.9987 13.4577 8.22649 13.4577 6.04036C13.4577 3.85424 11.6855 2.08203 9.49935 2.08203C7.31322 2.08203 5.54102 3.85424 5.54102 6.04036C5.54102 8.22649 7.31322 9.9987 9.49935 9.9987Z" stroke="#7E81E8" stroke-width="1.5" stroke-linecap="round" stroke-linejoin="round"/>
<path d="M2.69922 17.9167C2.69922 14.8529 5.74713 12.375 9.49963 12.375C10.2596 12.375 10.9959 12.4779 11.6846 12.6679" stroke="#7E81E8" stroke-width="1.5" stroke-linecap="round" stroke-linejoin="round"/>
<path d="M17.4173 14.7487C17.4173 15.002 17.3857 15.2474 17.3223 15.4849C17.2511 15.8016 17.1244 16.1104 16.9582 16.3795C16.4119 17.2979 15.4065 17.9154 14.2507 17.9154C13.4352 17.9154 12.699 17.6066 12.1448 17.0999C11.9073 16.8941 11.7015 16.6487 11.5431 16.3795C11.2502 15.9045 11.084 15.3424 11.084 14.7487C11.084 13.8937 11.4244 13.11 11.9786 12.54C12.5565 11.9462 13.364 11.582 14.2507 11.582C15.1848 11.582 16.0319 11.9858 16.6019 12.635C17.1086 13.197 17.4173 13.9412 17.4173 14.7487Z" stroke="#7E81E8" stroke-width="1.5" stroke-miterlimit="10" stroke-linecap="round" stroke-linejoin="round"/>
<path d="M15.4295 14.7344H13.0703" stroke="#7E81E8" stroke-width="1.5" stroke-miterlimit="10" stroke-linecap="round" stroke-linejoin="round"/>
<path d="M14.25 13.5781V15.9452" stroke="#7E81E8" stroke-width="1.5" stroke-miterlimit="10" stroke-linecap="round" stroke-linejoin="round"/>
</svg>
