<svg width="36" height="36" viewBox="0 0 36 36" fill="none" xmlns="http://www.w3.org/2000/svg">
<path d="M18 18.625C13.5211 18.625 9.875 14.9789 9.875 10.5C9.875 6.02114 13.5211 2.375 18 2.375C22.4789 2.375 26.125 6.02114 26.125 10.5C26.125 14.9789 22.4789 18.625 18 18.625ZM18 3.625C14.2139 3.625 11.125 6.71386 11.125 10.5C11.125 14.2861 14.2139 17.375 18 17.375C21.7861 17.375 24.875 14.2861 24.875 10.5C24.875 6.71386 21.7861 3.625 18 3.625Z" fill="#C8473E" stroke="#C8473E"/>
<path d="M30.8852 33.625C30.5464 33.625 30.2602 33.3389 30.2602 33C30.2602 27.4488 24.6444 23.125 18.0002 23.125C11.3561 23.125 5.74023 27.4488 5.74023 33C5.74023 33.3389 5.45409 33.625 5.11523 33.625C4.77638 33.625 4.49023 33.3389 4.49023 33C4.49023 26.9543 10.4601 21.875 18.0002 21.875C25.5403 21.875 31.5102 26.9543 31.5102 33C31.5102 33.3389 31.2241 33.625 30.8852 33.625Z" fill="#292D32" stroke="#C8473E"/>
</svg>
