<svg width="18" height="12" viewBox="0 0 18 12" fill="none" xmlns="http://www.w3.org/2000/svg">
<path d="M0.84375 0.375H17.1562C17.38 0.375 17.5946 0.463895 17.7529 0.622129C17.9111 0.780362 18 0.994974 18 1.21875C18 1.44253 17.9111 1.65714 17.7529 1.81537C17.5946 1.97361 17.38 2.0625 17.1562 2.0625H0.84375C0.619974 2.0625 0.405362 1.97361 0.247129 1.81537C0.0888948 1.65714 0 1.44253 0 1.21875C0 0.994974 0.0888948 0.780362 0.247129 0.622129C0.405362 0.463895 0.619974 0.375 0.84375 0.375ZM3.375 5.71875C3.375 5.49497 3.46389 5.28036 3.62213 5.12213C3.78036 4.96389 3.99497 4.875 4.21875 4.875H13.7812C14.005 4.875 14.2196 4.96389 14.3779 5.12213C14.5361 5.28036 14.625 5.49497 14.625 5.71875C14.625 5.94253 14.5361 6.15714 14.3779 6.31537C14.2196 6.4736 14.005 6.5625 13.7812 6.5625H4.21875C3.99497 6.5625 3.78036 6.4736 3.62213 6.31537C3.46389 6.15714 3.375 5.94253 3.375 5.71875ZM6.75 10.2188C6.75 9.99497 6.83889 9.78036 6.99713 9.62213C7.15536 9.46389 7.36997 9.375 7.59375 9.375H10.4062C10.63 9.375 10.8446 9.46389 11.0029 9.62213C11.1611 9.78036 11.25 9.99497 11.25 10.2188C11.25 10.4425 11.1611 10.6571 11.0029 10.8154C10.8446 10.9736 10.63 11.0625 10.4062 11.0625H7.59375C7.36997 11.0625 7.15536 10.9736 6.99713 10.8154C6.83889 10.6571 6.75 10.4425 6.75 10.2188Z" fill="white"/>
</svg>
